<svg width="101" height="101" viewBox="0 0 101 101" fill="none" xmlns="http://www.w3.org/2000/svg">
<path d="M50.4004 0C50.4496 1.02583 51.2948 1.82881 52.321 1.86938C53.5923 1.91965 54.8512 2.01887 56.0956 2.16511C57.1149 2.2849 58.0746 1.62479 58.2842 0.620117C58.1726 1.64021 58.8818 2.56439 59.8882 2.76494C61.1326 3.0129 62.3596 3.30885 63.5677 3.65001C64.5567 3.92929 65.6097 3.42748 65.9746 2.4668C65.7043 3.45817 66.2603 4.48348 67.2241 4.83985C68.4092 5.27805 69.5726 5.76083 70.712 6.28682C71.6475 6.71866 72.7693 6.38735 73.2812 5.49316C72.8577 6.43276 73.2468 7.53586 74.1448 8.04176C75.2374 8.65733 76.3035 9.31433 77.3415 10.01C78.2044 10.5883 79.3736 10.4354 80.0244 9.62598C79.4547 10.4951 79.6683 11.6549 80.4832 12.2998C81.4586 13.0717 82.4037 13.8801 83.3163 14.7233C84.0823 15.431 85.2657 15.4624 86.0381 14.7617C85.3366 15.5343 85.3669 16.7184 86.0739 17.486C86.9121 18.3962 87.7157 19.3386 88.4832 20.311C89.1315 21.1324 90.2994 21.3488 91.1748 20.7754C90.3591 21.4302 90.2039 22.6073 90.7847 23.4773C91.4706 24.505 92.1187 25.56 92.7263 26.6409C93.2378 27.5509 94.3545 27.9465 95.3066 27.5186C94.3996 28.0372 94.0626 29.1742 94.4988 30.1236C95.0132 31.2434 95.4861 32.3862 95.9158 33.5499C96.2785 34.5321 97.3227 35.0998 98.333 34.8252C97.3536 35.1962 96.841 36.2686 97.1234 37.2772C97.4537 38.4573 97.7408 39.6554 97.9824 40.8699C98.1875 41.9015 99.1341 42.6294 100.18 42.5156C99.149 42.7302 98.4713 43.7139 98.5918 44.7598C98.7308 45.967 98.8257 47.1876 98.8745 48.4201C98.9164 49.4775 99.7429 50.349 100.8 50.4004C99.7427 50.4513 98.9155 51.3222 98.8725 52.3796C98.8224 53.6084 98.7266 54.8255 98.5869 56.0292C98.4649 57.0794 99.1448 58.068 100.18 58.2842C99.129 58.1693 98.1773 58.9 97.9698 59.9364C97.7287 61.141 97.4427 62.3293 97.1142 63.4999C96.8286 64.5173 97.345 65.5999 98.333 65.9746C97.3132 65.6967 96.2588 66.2688 95.8914 67.2599C95.4657 68.4085 94.998 69.5366 94.4898 70.6423C94.0478 71.6037 94.3883 72.7556 95.3066 73.2812C94.3419 72.8468 93.2097 73.2468 92.6898 74.1683C92.0911 75.2296 91.4532 76.266 90.7787 77.2758C90.1878 78.1607 90.3451 79.3583 91.1748 80.0244C90.2845 79.4411 89.0966 79.6605 88.4358 80.495C87.6831 81.4456 86.8957 82.3675 86.0752 83.2585C85.354 84.0417 85.3225 85.2497 86.0381 86.0381C85.2497 85.3225 84.0417 85.354 83.2585 86.0753C82.3675 86.8957 81.4456 87.6831 80.495 88.4358C79.6605 89.0966 79.4411 90.2845 80.0244 91.1748C79.3582 90.3456 78.161 90.1885 77.2764 90.7792C76.2664 91.4536 75.2298 92.0912 74.1683 92.6899C73.2467 93.2097 72.8468 94.3419 73.2812 95.3066C72.7556 94.3883 71.6037 94.0478 70.6423 94.4899C69.5363 94.9985 68.4079 95.4666 67.2589 95.8926C66.2685 96.2599 65.6967 97.3138 65.9746 98.333C65.5999 97.345 64.5173 96.8287 63.5 97.1143C62.329 97.4431 61.1403 97.7295 59.9354 97.9708C58.8995 98.1783 58.1693 99.1295 58.2842 100.18C58.0686 99.1454 57.0808 98.4659 56.0313 98.5878C54.8266 98.7276 53.6085 98.8234 52.3786 98.8735C51.3217 98.9165 50.4513 99.7433 50.4004 100.8C50.349 99.7435 49.4779 98.9174 48.4211 98.8755C47.188 98.8267 45.9667 98.7318 44.7588 98.5926C43.7135 98.4722 42.7302 99.1495 42.5156 100.18C42.6294 99.1346 41.9019 98.1885 40.8709 97.9835C39.6557 97.7419 38.457 97.4546 37.2763 97.1241C36.2682 96.8419 35.1962 97.3541 34.8252 98.333C35.0998 97.3232 34.5325 96.2796 33.5508 95.9172C32.386 95.4872 31.2422 95.014 30.1215 94.4991C29.1728 94.0633 28.0366 94.4002 27.5186 95.3066C27.9464 94.3552 27.5512 93.239 26.6417 92.7279C25.5598 92.1199 24.5038 91.4713 23.4752 90.7848C22.6059 90.2046 21.4297 90.3597 20.7754 91.1748C21.3482 90.2999 21.132 89.1329 20.3111 88.485C19.338 87.717 18.3948 86.9128 17.484 86.0739C16.717 85.3674 15.5338 85.3371 14.7617 86.0381C15.4619 85.2663 15.4305 84.0837 14.7233 83.3182C13.8795 82.4049 13.0706 81.4589 12.2982 80.4826C11.6537 79.6681 10.4944 79.4547 9.62598 80.0244C10.4349 79.3741 10.5876 78.2058 10.0098 77.3437C9.3136 76.3049 8.65613 75.238 8.04015 74.1446C7.53459 73.2472 6.43228 72.8582 5.49316 73.2812C6.38676 72.7699 6.71793 71.6489 6.28631 70.7142C5.75956 69.5735 5.27604 68.4088 4.83728 67.2223C4.48129 66.2596 3.45699 65.7044 2.4668 65.9746C3.42636 65.6103 3.92763 64.5585 3.64881 63.5707C3.30746 62.3614 3.01154 61.133 2.76358 59.8873C2.56334 58.8814 1.63964 58.1726 0.620117 58.2842C1.62428 58.0746 2.28401 57.1153 2.16426 56.0965C2.01792 54.8515 1.91863 53.592 1.86835 52.32C1.82782 51.2943 1.02528 50.4496 0 50.4004C1.02512 50.3506 1.82695 49.5053 1.86636 48.4797C1.91538 47.2041 2.01369 45.941 2.15933 44.6924C2.27764 43.678 1.62001 42.7236 0.620117 42.5156C1.63456 42.6261 2.55314 41.92 2.7511 40.919C2.99941 39.6633 3.29644 38.4252 3.63959 37.2064C3.91521 36.2274 3.41775 35.1858 2.4668 34.8252C3.44818 35.0921 4.46268 34.541 4.81415 33.5866C5.25656 32.3853 5.74487 31.2062 6.27743 30.0517C6.70307 29.129 6.37539 28.0228 5.49316 27.5186C6.41952 27.9355 7.50661 27.5511 8.00389 26.6653C8.62873 25.5523 9.29654 24.4666 10.0044 23.41C10.5722 22.5625 10.4213 21.4143 9.62598 20.7754C10.4796 21.3346 11.6186 21.1242 12.2506 20.3229C13.0378 19.325 13.863 18.3586 14.7246 17.4262C15.4176 16.6763 15.4478 15.5178 14.7617 14.7617C15.5178 15.4478 16.6764 15.4176 17.4262 14.7247C18.3586 13.863 19.325 13.0378 20.3229 12.2506C21.1241 11.6186 21.3346 10.4796 20.7754 9.62598C21.4143 10.4213 22.5625 10.5722 23.4101 10.0044C24.4666 9.29655 25.5523 8.62872 26.6653 8.00388C27.5511 7.50659 27.9355 6.41951 27.5186 5.49316C28.0228 6.3754 29.129 6.70309 30.0518 6.27757C31.206 5.74535 32.3847 5.25745 33.5857 4.81532C34.5407 4.46376 35.0922 3.44876 34.8252 2.4668C35.1858 3.41826 36.2279 3.91606 37.2073 3.64033C38.4255 3.29737 39.663 3.00047 40.918 2.75225C41.9196 2.55416 42.6261 1.63512 42.5156 0.620117C42.7236 1.62001 43.678 2.27766 44.6925 2.15949C45.9407 2.01408 47.2034 1.91607 48.4788 1.86722C49.5049 1.82791 50.3506 1.02566 50.4004 0Z" fill="url(#paint0_linear_2519_4238)"/>
<defs>
<linearGradient id="paint0_linear_2519_4238" x1="-0.468538" y1="4.04433" x2="110.52" y2="16.9024" gradientUnits="userSpaceOnUse">
<stop stop-color="#DD429D"/>
<stop offset="0.5" stop-color="#B14BF4"/>
<stop offset="1" stop-color="#485CFB"/>
</linearGradient>
</defs>
</svg>
