<?xml version="1.0" standalone="no"?><!DOCTYPE svg PUBLIC "-//W3C//DTD SVG 1.1//EN" "http://www.w3.org/Graphics/SVG/1.1/DTD/svg11.dtd"><svg t="1761988662748" class="icon" viewBox="0 0 1024 1024" version="1.1" xmlns="http://www.w3.org/2000/svg" p-id="922" xmlns:xlink="http://www.w3.org/1999/xlink" width="128" height="128" fill="currentColor"><path d="M21.80150782 510.61915916q0-20.71261235 13.11798783-33.14017977t32.44975932-12.4275674h682.1353666l111.84810666 1.38084082-171.22426206-153.27333136-115.99062914-117.37146996q-12.42756741-12.42756741-12.4275674-32.44975933t13.11798782-32.44975935q13.11798782-12.42756741 31.75933893-12.4275674t33.83060015 13.80840823l345.21020578 343.82936494q15.18924905 15.18924905 15.18924905 34.52102058t-15.18924905 34.52102057L640.41819653 888.96954466q-15.18924905 15.18924905-33.83060015 15.18924905t-31.75933893-13.11798781q-13.11798782-13.11798782-13.11798782-33.14017976t12.4275674-32.44975933l115.99062914-117.37146996 172.60510288-151.89249055-113.22894748 1.38084084H67.36925497q-19.33177153 0-32.44975932-13.11798781T21.80150782 510.61915916z" p-id="923"></path></svg>
