<svg width="8" height="11" viewBox="0 0 8 11" fill="none" xmlns="http://www.w3.org/2000/svg">
<path d="M6.5 7.1227V10.5584C6.5 10.6965 6.38805 10.8085 6.25 10.8085C6.2047 10.8085 6.16025 10.7962 6.1214 10.7729L4 9.5L1.87862 10.7729C1.76023 10.8439 1.60667 10.8055 1.53562 10.6871C1.51232 10.6482 1.5 10.6037 1.5 10.5584V7.1227C0.585535 6.38965 0 5.2632 0 4C0 1.79086 1.79086 0 4 0C6.20915 0 8 1.79086 8 4C8 5.2632 7.41445 6.38965 6.5 7.1227ZM2.5 7.70925V9.2338L4 8.3338L5.5 9.2338V7.70925C5.0368 7.89675 4.53045 8 4 8C3.46955 8 2.96321 7.89675 2.5 7.70925ZM4 7C5.65685 7 7 5.65685 7 4C7 2.34314 5.65685 1 4 1C2.34314 1 1 2.34314 1 4C1 5.65685 2.34314 7 4 7Z" fill="url(#paint0_linear_6392_26036)"/>
<defs>
<linearGradient id="paint0_linear_6392_26036" x1="-0.0371856" y1="0.433662" x2="8.82446" y2="1.19353" gradientUnits="userSpaceOnUse">
<stop stop-color="#DD429D"/>
<stop offset="0.5" stop-color="#B14BF4"/>
<stop offset="1" stop-color="#485CFB"/>
</linearGradient>
</defs>
</svg>
