<svg width="20" height="20" viewBox="0 0 20 20" fill="none" xmlns="http://www.w3.org/2000/svg">
<path d="M3.33333 1.66675H16.6667C17.1269 1.66675 17.5 2.03985 17.5 2.50008V18.5637C17.5 18.7938 17.3134 18.9804 17.0833 18.9804C17.0248 18.9804 16.967 18.968 16.9136 18.9442L10 15.8595L3.08644 18.9442C2.87629 19.038 2.62993 18.9436 2.53616 18.7335C2.51232 18.68 2.5 18.6222 2.5 18.5637V2.50008C2.5 2.03985 2.8731 1.66675 3.33333 1.66675ZM15.8333 16.6372V3.33341H4.16667V16.6372L10 14.0344L15.8333 16.6372ZM10 11.2501L7.55089 12.5377L8.01863 9.8105L6.03727 7.87918L8.77542 7.4813L10 5.00008L11.2246 7.4813L13.9628 7.87918L11.9813 9.8105L12.4491 12.5377L10 11.2501Z" fill="url(#paint0_linear_2211_9955)"/>
<defs>
<linearGradient id="paint0_linear_2211_9955" x1="17.5" y1="18.6788" x2="2.5" y2="3.67881" gradientUnits="userSpaceOnUse">
<stop stop-color="#FED669"/>
<stop offset="1" stop-color="#EAAB30"/>
</linearGradient>
</defs>
</svg>
