<svg width="23" height="9" viewBox="0 0 23 9" fill="none" xmlns="http://www.w3.org/2000/svg">
<path d="M2.60473 8.70629L0.273997 6.37556C-0.0720437 6.02952 -0.0916187 5.47487 0.229113 5.10536C0.497047 4.79669 0.722072 4.55137 0.904188 4.36925C6.72862 -1.45518 16.1718 -1.45518 21.9962 4.36925C22.1783 4.55136 22.4033 4.79674 22.6712 5.10539C22.992 5.47493 22.9724 6.02955 22.6264 6.37553L20.2956 8.70636C20.1264 8.87554 19.8566 8.8891 19.6712 8.73775C19.5049 8.60189 19.3694 8.49474 19.2647 8.41631C18.2003 7.61849 17.0416 7.00454 15.8322 6.57447C15.6381 6.50543 15.5214 6.30716 15.5553 6.10393L15.9617 3.66514C13.0726 2.50816 9.82782 2.50814 6.93868 3.66511L7.3445 6.09959C7.37871 6.3053 7.2606 6.50594 7.06424 6.57587C5.85521 7.00621 4.69699 7.62039 3.63297 8.41839C3.52896 8.4963 3.39436 8.60281 3.22912 8.73773C3.04378 8.88907 2.77393 8.87549 2.60473 8.70629Z" fill="currentColor"/>
</svg>
