<svg width="17" height="15" viewBox="0 0 17 15" fill="none" xmlns="http://www.w3.org/2000/svg">
<path d="M10.3613 0C10.9467 0 11.4891 0.3071 11.7903 0.808917L12.4341 1.8807C12.5094 2.0062 12.645 2.08333 12.7913 2.08333H14.1667C15.5474 2.08333 16.6667 3.20263 16.6667 4.58333V12.5C16.6667 13.8807 15.5474 15 14.1667 15H2.5C1.11929 15 0 13.8807 0 12.5V4.58333C0 3.20263 1.11929 2.08333 2.5 2.08333H3.87532C4.02168 2.08333 4.15728 2.0062 4.23258 1.8807L4.8763 0.808917C5.17755 0.3071 5.72003 0 6.30534 0H10.3613ZM8.33333 4.58333C6.26227 4.58333 4.58333 6.26225 4.58333 8.33333C4.58333 10.4044 6.26227 12.0833 8.33333 12.0833C10.4044 12.0833 12.0833 10.4044 12.0833 8.33333C12.0833 6.26225 10.4044 4.58333 8.33333 4.58333ZM8.33333 6.25C9.48392 6.25 10.4167 7.18275 10.4167 8.33333C10.4167 9.48392 9.48392 10.4167 8.33333 10.4167C7.18275 10.4167 6.25 9.48392 6.25 8.33333C6.25 7.18275 7.18275 6.25 8.33333 6.25Z" fill="currentColor"/>
</svg>
