<svg width="18" height="17" viewBox="0 0 18 17" xmlns="http://www.w3.org/2000/svg">
<path fill="currentColor" d="M16.6667 7.5H15V1.66667H1.66667V12.8209L3.13568 11.6667H8.33333V13.3333H3.71212L0 16.25V0.833333C0 0.3731 0.3731 0 0.833333 0H15.8333C16.2936 0 16.6667 0.3731 16.6667 0.833333V7.5ZM10.1208 13.3925C10.0421 13.1084 10 12.8092 10 12.5C10 12.1908 10.0421 11.8916 10.1208 11.6075L9.30825 11.1383L10.1416 9.695L10.9549 10.1646C11.3729 9.73892 11.9043 9.425 12.5 9.27167V8.33333H14.1667V9.27167C14.7624 9.425 15.2937 9.73892 15.7117 10.1646L16.5251 9.695L17.3584 11.1383L16.5458 11.6075C16.6246 11.8916 16.6667 12.1908 16.6667 12.5C16.6667 12.8092 16.6246 13.1084 16.5458 13.3925L17.3584 13.8617L16.5251 15.305L15.7117 14.8354C15.2937 15.2611 14.7624 15.575 14.1667 15.7283V16.6667H12.5V15.7283C11.9043 15.575 11.3729 15.2611 10.9549 14.8354L10.1416 15.305L9.30825 13.8617L10.1208 13.3925ZM13.3333 14.1667C14.2538 14.1667 15 13.4205 15 12.5C15 11.5795 14.2538 10.8333 13.3333 10.8333C12.4128 10.8333 11.6667 11.5795 11.6667 12.5C11.6667 13.4205 12.4128 14.1667 13.3333 14.1667Z" />
</svg>
