<?xml version="1.0" standalone="no"?><!DOCTYPE svg PUBLIC "-//W3C//DTD SVG 1.1//EN" "http://www.w3.org/Graphics/SVG/1.1/DTD/svg11.dtd"><svg t="1761296190268" class="icon" viewBox="0 0 1024 1024" version="1.1" xmlns="http://www.w3.org/2000/svg" p-id="1871" xmlns:xlink="http://www.w3.org/1999/xlink" width="128" height="128"><path fill="currentColor" d="M883.754667 346.794667l-10.496 24.149333a21.589333 21.589333 0 0 1-39.850667 0l-10.496-24.149333a186.154667 186.154667 0 0 0-94.72-96l-32.384-14.464a22.613333 22.613333 0 0 1 0-41.088l30.592-13.610667a186.282667 186.282667 0 0 0 96.042667-99.242667l10.794666-26.069333a21.589333 21.589333 0 0 1 40.192 0l10.794667 26.026667a186.282667 186.282667 0 0 0 96 99.285333l30.634667 13.653333a22.613333 22.613333 0 0 1 0 41.045334l-32.426667 14.421333a186.154667 186.154667 0 0 0-94.677333 96.042667zM938.666667 512c0-18.986667-1.237333-37.674667-3.626667-55.978667A255.744 255.744 0 0 1 853.333333 469.333333a254.805333 254.805333 0 0 1-128-34.261333V640h-85.333333V384h22.528A255.061333 255.061333 0 0 1 597.333333 213.333333c0-40.661333 9.472-79.104 26.325334-113.237333A427.221333 427.221333 0 0 0 512 85.333333C276.352 85.333333 85.333333 276.352 85.333333 512a425.344 425.344 0 0 0 124.970667 301.696L85.333333 938.666667h426.666667c235.648 0 426.666667-191.018667 426.666667-426.666667zM469.333333 256h85.333334v512h-85.333334V256z m-170.666666 384V384h85.333333v256H298.666667z" p-id="1872"></path></svg>