<?xml version="1.0" standalone="no"?><!DOCTYPE svg PUBLIC "-//W3C//DTD SVG 1.1//EN" "http://www.w3.org/Graphics/SVG/1.1/DTD/svg11.dtd"><svg t="1762002645442" class="icon" viewBox="0 0 1024 1024" version="1.1" xmlns="http://www.w3.org/2000/svg" p-id="12042" xmlns:xlink="http://www.w3.org/1999/xlink" width="128" height="128"><path d="M61.44 176.128c0 0.5632-1.8432 1.024-4.096 1.024-2.2528 0-4.096 0.4608-4.096 1.024 0 0.5632-1.3824 1.024-3.072 1.024-1.6896 0-3.072 0.4608-3.072 1.024 0 0.5632-0.9216 1.024-2.048 1.024-1.1264 0-2.048 0.4608-2.048 1.024 0 0.5632-0.9216 1.024-2.048 1.024-1.1264 0-2.048 0.4608-2.048 1.024 0 0.5632-0.9216 1.024-2.048 1.024-1.1264 0-2.048 0.4608-2.048 1.024 0 0.5632-0.6912 1.024-1.536 1.024-0.8448 0-1.536 0.4608-1.536 1.024 0 0.5632-0.576 1.02912-1.28 1.03424-0.704 0.00512-2.368 1.38752-3.6992 3.072-1.3312 1.68448-2.94912 3.06176-3.5968 3.06176-0.64768 0-2.09408 1.21856-3.2128 2.71104-1.11872 1.48992-3.5328 4.34432-5.3632 6.34368-1.8304 1.99936-3.328 4.23424-3.328 4.96896 0 0.73472-0.38912 1.33632-0.86272 1.33632-0.47616 0-1.9072 2.1888-3.18464 4.864a387.15648 387.15648 0 0 1-3.23328 6.6432c-0.50176 0.97792-0.91136 2.43712-0.91136 3.24096 0 0.8064-0.576 1.65632-1.28 1.89184-1.88416 0.6272-1.88416 568.2048 0 568.832 0.704 0.23552 1.28 1.10848 1.28 1.94304 0 2.19136 6.19008 14.69696 7.27552 14.69696 0.50432 0 0.91648 0.70656 0.91648 1.56928 0 0.86528 1.4976 3.13088 3.328 5.03552 1.8304 1.90464 4.56704 4.76928 6.08256 6.36672 4.8384 5.0944 8.8576 8.53248 9.97888 8.53248 0.6016 0 1.09056 0.4608 1.09056 1.024 0 0.5632 0.6912 1.024 1.536 1.024 0.8448 0 1.536 0.4608 1.536 1.024 0 0.5632 0.9216 1.024 2.048 1.024 1.1264 0 2.048 0.4608 2.048 1.024 0 0.5632 0.9216 1.024 2.048 1.024 1.1264 0 2.048 0.4608 2.048 1.024 0 0.5632 0.9216 1.024 2.048 1.024 1.1264 0 2.048 0.4608 2.048 1.024 0 0.5632 1.3824 1.024 3.072 1.024 1.6896 0 3.072 0.4608 3.072 1.024 0 0.5632 1.8432 1.024 4.096 1.024 2.2528 0 4.096 0.4608 4.096 1.024 0 0.68096 150.86848 1.024 450.56 1.024 299.69152 0 450.56-0.34304 450.56-1.024 0-0.5632 1.8432-1.024 4.096-1.024 2.2528 0 4.096-0.4608 4.096-1.024 0-0.5632 1.3824-1.024 3.072-1.024 1.6896 0 3.072-0.4608 3.072-1.024 0-0.5632 0.9216-1.024 2.048-1.024 1.1264 0 2.048-0.4608 2.048-1.024 0-0.5632 0.9216-1.024 2.048-1.024 1.1264 0 2.048-0.4608 2.048-1.024 0-0.5632 0.9216-1.024 2.048-1.024 1.1264 0 2.048-0.4608 2.048-1.024 0-0.5632 0.576-1.02656 1.28-1.02656 1.45152-0.00512 9.088-6.21568 13.00992-10.57792 1.4336-1.59744 4.10368-4.46208 5.93408-6.36672 1.8304-1.90464 3.328-4.17024 3.328-5.03552 0-0.86272 0.38912-1.56928 0.86272-1.56928 0.47616 0 1.9072-2.1888 3.18464-4.864a387.15648 387.15648 0 0 1 3.23328-6.6432c0.50176-0.97792 0.91136-2.43712 0.91136-3.24096 0-0.8064 0.576-1.65632 1.28-1.89184 1.88416-0.6272 1.88416-568.2048 0-568.832-0.704-0.23552-1.28-1.08544-1.28-1.89184 0-0.80384-0.4096-2.26304-0.91136-3.24096-0.50176-0.97792-1.95584-3.968-3.23328-6.6432-1.27744-2.6752-2.70848-4.864-3.18464-4.864-0.4736 0-0.86272-0.68352-0.86272-1.51808 0-2.9568-19.23584-22.03392-22.21568-22.03392-0.73472 0-1.33632-0.4608-1.33632-1.024 0-0.5632-0.9216-1.024-2.048-1.024-1.1264 0-2.048-0.4608-2.048-1.024 0-0.5632-0.9216-1.024-2.048-1.024-1.1264 0-2.048-0.4608-2.048-1.024 0-0.5632-0.9216-1.024-2.048-1.024-1.1264 0-2.048-0.4608-2.048-1.024 0-0.5632-1.3824-1.024-3.072-1.024-1.6896 0-3.072-0.4608-3.072-1.024 0-0.5632-1.8432-1.024-4.096-1.024-2.2528 0-4.096-0.4608-4.096-1.024 0-0.68096-150.86848-1.024-450.56-1.024-299.69152 0-450.56 0.34304-450.56 1.024m263.60576 52.38016c0.88576 1.77664 1.61024 4.91008 1.61024 6.9632 0 2.05568 0.42496 4.1728 0.94464 4.70784 0.51968 0.53504 1.09568 2.33728 1.28 4.00384 0.38912 3.51488 2.47808 4.38784 10.86464 4.54656 7.51616 0.14336 12.51072 2.36032 12.51072 5.55776 0 2.74944-0.77568 3.56352-6.4 6.72256-8.97536 5.0432-11.56864 6.50752-12.3776 6.99392-0.47104 0.28416-0.35584 1.01632 0.256 1.62816 0.61184 0.61184 1.1136 3.06688 1.1136 5.45536 0 2.38848 0.4608 4.62848 1.024 4.97664 0.5632 0.34816 1.024 2.91072 1.024 5.69344v5.05856h-3.59168c-3.63264 0-5.75744-1.41568-13.43232-8.96-3.05408-3.00032-7.552-4.52096-7.552-2.55488 0 0.42752-1.4976 1.42592-3.328 2.22208-1.8304 0.79616-3.5584 1.7152-3.84 2.04288-1.45408 1.68704-5.49632 3.15392-8.6912 3.15392-4.70528 0-4.9536-4.38016-0.70912-12.45184 5.07136-9.64096 5.08416-9.5744-3.01568-17.29792-6.11072-5.82656-7.15008-7.3088-6.86336-9.8048l0.33536-2.94144 8.31488 0.1024c4.57216 0.05376 9.64096 0.3584 11.264 0.67584 2.85696 0.55808 9.60512-9.536 9.60512-14.36672 0-0.6912 0.4608-1.25952 1.024-1.25952 0.5632 0 1.024-0.6528 1.024-1.45152 0-3.72992 5.6704-3.29472 7.60576 0.58368M169.216 276.88192c0.9856 0.74752 1.792 2.08896 1.792 2.97728 0 0.89088 0.4608 1.90464 1.024 2.2528 0.5632 0.34816 1.024 1.75872 1.024 3.13344 0 1.37472 0.4608 2.49856 1.024 2.49856 0.5632 0 1.024 0.77568 1.024 1.72288 0 1.57952 3.03872 11.26912 5.07904 16.19712 0.46592 1.1264 2.0864 6.1952 3.59936 11.264 1.51552 5.0688 3.16672 10.2528 3.67104 11.52l0.91904 2.304 27.41248 0.03328c27.74272 0.03328 30.99904 0.44288 30.99904 3.91936 0 0.64256 0.4608 1.16736 1.024 1.16736 0.5632 0 1.024 1.56416 1.024 3.47648 0 4.17536-2.61632 7.15776-12.25984 13.9776-1.95584 1.3824-4.17792 3.08992-4.93824 3.79392-0.75776 0.704-1.72032 1.28-2.1376 1.28-0.41728 0-1.6512 0.8192-2.74432 1.82016-1.09056 1.00096-3.5968 2.93632-5.568 4.30336-1.9712 1.36448-3.8144 2.75712-4.096 3.09248-0.2816 0.33536-2.1248 1.728-4.096 3.09248-1.9712 1.36704-4.47744 3.3024-5.568 4.30336-1.09312 1.00096-2.68288 1.82016-3.5328 1.82016-1.20576 0-1.27488 0.27392-0.32 1.2288 0.67584 0.67584 1.2288 2.51904 1.2288 4.096 0 1.57696 0.4608 2.8672 1.024 2.8672 0.5632 0 1.024 1.35424 1.024 3.01056 0 1.65632 0.4608 3.29728 1.024 3.64544 0.5632 0.34816 1.024 1.73056 1.024 3.072 0 1.34144 0.4608 2.72384 1.024 3.072 0.5632 0.34816 1.024 1.53344 1.024 2.63424 0 1.1008 0.41472 2.80064 0.91904 3.77856 0.50432 0.97792 1.94304 5.2352 3.19488 9.4592 1.24928 4.224 2.71104 8.62976 3.24352 9.78944 2.88256 6.25664-1.8944 15.81056-7.90528 15.81056-1.27744 0-13.17632-7.55456-15.61856-9.91744-0.72448-0.70144-2.68288-2.08128-4.352-3.06688-1.66912-0.9856-3.0336-2.15552-3.0336-2.59584 0-0.44288-0.576-0.80384-1.28-0.80384-0.704-0.00256-2.6624-1.19296-4.352-2.6496-1.6896-1.45664-4.3392-3.39968-5.888-4.31616-1.5488-0.91648-2.816-2.03008-2.816-2.4704 0-0.44288-0.45568-0.80384-1.0112-0.80384-0.95744 0-3.64544-1.95328-6.74304-4.89728-1.62816-1.54624-4.0192-0.44288-8.96256 4.12928-1.67424 1.5488-3.66592 2.816-4.42624 2.816-0.76288 0-1.38496 0.36096-1.38496 0.80384 0 0.44032-1.36448 1.61024-3.0336 2.59584s-3.62752 2.37312-4.352 3.0848c-0.72448 0.71168-3.6224 2.86464-6.4384 4.78464-2.816 1.92256-5.89312 4.20352-6.8352 5.07136-11.6736 10.73664-22.23616 9.66656-22.31552-2.26048-0.01792-2.6752 0.42752-4.864 0.99072-4.864s1.024-1.3824 1.024-3.072c0-1.6896 0.4608-3.072 1.024-3.072 0.5632 0 1.024-0.91904 1.024-2.04288 0-1.82016 2.83904-11.4304 9.34656-31.6544 1.91488-5.94944 1.9584-6.64576 0.46848-7.48032-0.90368-0.50432-2.76992-2.04544-4.1472-3.42272-1.37728-1.37728-2.91584-2.50368-3.42016-2.50368-0.50688 0-2.36544-1.3824-4.1344-3.072-1.76896-1.6896-3.59168-3.072-4.05504-3.072-0.4608 0-1.73312-0.8192-2.82624-1.82016-1.09056-1.00096-5.72672-4.44672-10.29888-7.65696-15.5776-10.93376-18.27072-15.74144-12.2112-21.80096l2.51392-2.51392h27.7248c25.51296 0 27.77088-0.14336 28.28288-1.792a24.61696 24.61696 0 0 1 1.50272-3.5712c0.52224-0.97792 0.94976-2.67776 0.94976-3.77856 0-1.1008 0.4608-2.28608 1.024-2.63424 0.5632-0.34816 1.024-1.73056 1.024-3.072 0-1.34144 0.4608-2.72384 1.024-3.072 0.5632-0.34816 1.024-1.73056 1.024-3.072 0-1.34144 0.4608-2.72384 1.024-3.072 0.5632-0.34816 1.024-1.73056 1.024-3.072 0-1.34144 0.4608-2.72384 1.024-3.072 0.5632-0.34816 1.024-1.73056 1.024-3.072 0-1.34144 0.4608-2.72384 1.024-3.072 0.5632-0.34816 1.024-1.53344 1.024-2.63424 0-1.1008 0.43264-2.80064 0.96256-3.77856 0.52992-0.97792 1.21088-2.97216 1.51296-4.4288 1.46688-7.05024 9.84576-10.73152 15.18848-6.67648m195.08224 16.09728c0.98048 1.18784 2.25792 2.68544 2.83904 3.328 0.58112 0.64 2.17856 2.7776 3.55072 4.7488s3.15392 4.2624 3.96288 5.09184c1.55392 1.59744 7.10656 1.55904 8.78592-0.05888 0.53504-0.51456 2.00448-0.93696 3.26656-0.93696s2.58048-0.4608 2.92864-1.024c1.25952-2.03776 8.54528-1.18784 9.792 1.14176 1.152 2.15552 0.07168 4.11136-10.0352 18.18368-1.08288 1.50784-0.43776 2.9184 4.41856 9.65376 7.27296 10.08384 7.40352 13.34784 0.5504 13.83936-2.4704 0.17664-4.98176-0.16896-5.5808-0.768-0.59904-0.59904-2.05824-1.09056-3.24096-1.09056-1.18272 0-2.58816-0.39936-3.1232-0.88832-2.57024-2.35008-7.3216-2.112-8.68096 0.43008-0.73728 1.37984-1.72544 2.50624-2.19392 2.50624-0.46592 0-0.84992 0.49408-0.84992 1.09824 0 0.6016-0.576 1.68192-1.28 2.39616-0.704 0.7168-2.38592 2.75712-3.7376 4.53632-1.74592 2.29632-3.3024 3.23328-5.376 3.23328h-2.9184v-23.552h-2.49856c-1.37472 0-2.78528-0.4608-3.13344-1.024-0.34816-0.5632-1.75872-1.024-3.13344-1.024-1.37472 0-2.49856-0.4608-2.49856-1.024 0-0.5632-1.12384-1.024-2.49856-1.024-1.37472 0-2.78528-0.4608-3.13344-1.024-0.34816-0.5632-1.47712-1.024-2.51136-1.024-2.112 0-3.43808-2.5216-2.63424-5.00736 0.5888-1.81504 5.05344-4.20864 7.84896-4.20864 0.98048 0 2.06848-0.4608 2.41664-1.024 0.34816-0.5632 1.73056-1.024 3.072-1.024 1.34144 0 2.72384-0.4608 3.072-1.024 0.34816-0.5632 1.75872-1.024 3.13344-1.024h2.49856v-11.69152c0-11.71456 0.25856-12.57984 3.85024-12.80256 0.70912-0.04608 2.09152 0.89088 3.072 2.08128m2.44992 85.6448c1.50528 1.80224 7.30368 13.45792 8.4608 17.00608 0.51712 1.5872 1.25696 1.78688 4.44928 1.20576 21.85728-3.99104 25.30048-0.60672 12.24192 12.03712-6.37952 6.17728-7.06304 7.20384-6.12864 9.216 0.576 1.24416 2.5344 5.32736 4.34944 9.07264 5.47584 11.30496 1.86368 14.97344-8.86528 9.00608-13.3632-7.43424-11.01568-7.3856-18.38592-0.37888-7.4112 7.04512-10.01472 8.2304-13.312 6.06976-2.51648-1.64864-3.16672-4.02944-1.39776-5.12256 0.5632-0.34816 1.024-2.65216 1.024-5.12s0.4608-4.77184 1.024-5.12c2.3168-1.43104 1.12384-7.2832-1.792-8.78592-1.5488-0.79872-3.0464-1.68192-3.328-1.96608-0.2816-0.28416-1.8944-1.20576-3.584-2.048-1.6896-0.84224-3.3024-1.76384-3.584-2.04544-0.2816-0.28416-1.4336-1.024-2.56-1.64864-5.8752-3.2512-1.6768-8.59392 6.75328-8.59392 3.25888 0 6.21056-0.4608 6.55872-1.024 0.34816-0.5632 1.82272-1.024 3.2768-1.024 3.52768 0 5.35552-2.66496 5.39392-7.87456 0.01792-2.36032 0.49408-4.57728 1.05728-4.92544 0.5632-0.34816 1.024-2.05312 1.024-3.7888 0-5.0048 4.48512-7.54432 7.32416-4.1472m-39.77984 62.49984c1.23904 1.36704 1.73056 4.38016 1.95072 11.92448 0.33792 11.49696-0.512 10.45248 11.56096 14.19264 10.65472 3.29984 12.28032 10.5472 2.75456 12.27776-1.51552 0.27392-5.28896 1.43616-8.38656 2.5856l-5.632 2.08384-0.512 11.08992-0.512 11.08992-2.96704 0.33792c-3.15136 0.36096-5.04832-1.18528-9.84832-8.01792-5.2224-7.43936-10.22464-10.944-10.22464-7.168 0 0.5632-1.3824 1.024-3.072 1.024-1.6896 0-3.072 0.4608-3.072 1.024 0 0.5632-1.35424 1.024-3.01056 1.024-1.65632 0-3.29728 0.4608-3.64544 1.024-1.5616 2.52416-6.656-0.17408-6.656-3.52512 0-2.10688 1.57184-4.85376 6.94528-12.14208l4.38272-5.94432-5.66272-8.0384c-5.60128-7.9488-6.25664-9.60256-5.0432-12.7616 0.68864-1.79968 6.03648-2.25024 7.05792-0.59648 0.34816 0.5632 1.64864 1.024 2.89024 1.024s4.57472 0.84736 7.40608 1.8816c5.6064 2.048 5.44768 2.11456 9.67168-3.9296 1.37728-1.9712 3.32288-4.47744 4.32384-5.568 1.00096-1.09312 1.82016-2.42432 1.82016-2.95936 0-3.15648 5.16864-4.49024 7.48032-1.9328" fill="#FC4C54" p-id="12043"></path><path d="M315.44832 236.9408c-5.27104 10.83904-5.1584 10.75968-13.88032 9.7536-16.19968-1.87392-17.11104-0.67328-6.76864 8.89856 8.41984 7.79776 8.43264 7.86176 3.69664 18.25536-6.37952 13.99808-5.31712 14.30272 13.1584 3.77344 4.51584-2.5728 3.75808-2.91584 13.76 6.26176 8.98304 8.24576 10.21184 7.87712 8.31232-2.49088-2.75456-15.02976-2.816-14.6816 3.15648-17.91488 14.74304-7.97696 16.12288-10.6624 6.07232-11.81696-17.152-1.9712-15.08096-0.0768-18.496-16.9088-1.85088-9.12384-3.73248-8.66816-9.0112 2.1888m-156.09088 41.87904c-1.07776 0.79104-5.08416 11.12832-10.00192 25.81504-4.51072 13.47328-8.64256 25.32096-9.18272 26.3296-0.90368 1.69216-3.07712 1.83552-27.9424 1.83552-25.72544 0-27.0848 0.09728-29.66016 2.12224-6.05952 4.76672-4.61056 6.7328 16.24576 22.01088 7.3216 5.3632 14.01344 10.32704 14.87104 11.03104 0.8576 0.704 3.7376 2.78016 6.4 4.61056 6.20544 4.27008 6.24384 4.02176-6.45632 42.14528-4.16 12.48768-4.62848 15.87968-2.61888 18.94912 3.43808 5.24288 4.22144 4.84096 39.15008-20.13184 4.02432-2.87488 8.65536-6.07744 10.29376-7.11424l2.97728-1.88672 7.1168 4.74624c3.91168 2.60864 7.34464 5.05088 7.62624 5.42464 0.2816 0.37376 3.2768 2.5856 6.656 4.91776 3.3792 2.33472 9.3696 6.5664 13.312 9.41056 9.82528 7.08352 11.30496 7.74912 14.61504 6.58432 3.9552-1.39008 4.99456-5.21472 3.06944-11.31008a3949.4144 3949.4144 0 0 1-4.89984-15.73376 1189.6064 1189.6064 0 0 0-6.26432-19.57632c-3.93472-11.82464-3.86048-12.45696 1.90464-16.42496 2.6624-1.8304 5.5424-3.91424 6.4-4.62592 2.45248-2.04032 18.68544-14.02368 23.67232-17.47456 8.79616-6.08768 9.56672-7.18592 9.23648-13.1584C245.6576 333.31456 242.03008 332.8 214.0928 332.8c-19.9296 0-26.70336-0.31488-27.47648-1.28-0.56576-0.704-4.608-12.3392-8.98304-25.856-9.1008-28.1216-11.56864-31.74656-18.27584-26.84416m199.72608 15.75168c-0.37632 0.37376-0.68352 5.44256-0.68352 11.264 0 5.81888-0.1152 10.5856-0.256 10.59328-0.1408 0.00768-4.6336 1.536-9.984 3.39712-12.55424 4.3648-12.9024 5.98272-2.048 9.52832 13.14304 4.29056 12.288 3.21792 12.288 15.42656 0 15.30624 1.40032 15.41632 11.776 0.9216 4.78976-6.69184 5.1712-6.7584 16.4352-2.83648 12.76672 4.44416 13.51168 3.15904 5.0688-8.75776-3.0976-4.37248-5.632-8.42752-5.632-9.01376 0-0.58624 2.5344-4.57728 5.632-8.87296 8.512-11.80416 6.9632-13.3504-7.93088-7.90528-8.22272 3.00544-8.81152 2.7648-15.39072-6.28992-5.48608-7.54688-7.53664-9.19552-9.27488-7.45472m2.89792 86.35904c-0.34816 0.56576-1.09056 3.44576-1.64608 6.4a6084.6336 6084.6336 0 0 1-1.6 8.44544c-0.95488 5.02016-3.10528 6.656-8.74496 6.656-9.33376 0-17.50272 3.06688-14.00576 5.25824 5.52192 3.46112 11.99104 7.20896 13.75232 7.96672 3.68384 1.58208 4.48768 3.36128 3.5072 7.77984-4.6592 21.03552-4.23168 21.68832 7.35744 11.2512 8.80384-7.92832 8.6272-7.9104 19.12832-1.96096 10.98496 6.22336 12.57472 5.24032 7.95904-4.92032a359.86432 359.86432 0 0 1-4.02688-9.20576l-1.56928-3.79648 7.77216-7.07328c11.14368-10.14016 8.92672-11.93216-11.0336-8.90112-3.69408 0.56064-4.17024 0.03328-9.01888-9.96608-4.01408-8.2816-6.22848-10.52416-7.83104-7.93344m-45.15584 69.59872c-7.26784 9.99168-6.208 9.62304-17.2672 6.01856-13.82656-4.50816-14.8096-3.18208-6.1824 8.34816 3.0976 4.13952 5.632 8.11008 5.632 8.82176s-2.5344 4.8256-5.632 9.14432c-7.32672 10.21184-6.80192 13.1584 1.74336 9.77408 13.78816-5.45792 14.43584-5.3248 21.7984 4.45696 8.75776 11.63776 9.69984 11.136 9.72544-5.18144l0.0128-9.33376 9.984-3.51232c13.57056-4.7744 13.60896-6.3232 0.26368-10.63424l-9.72032-3.14112-0.7168-4.03712c-0.39424-2.21952-0.7424-7.37792-0.77568-11.46112-0.0768-9.7536-1.31328-9.6512-8.86528 0.73728" fill="#FCE05C" p-id="12044"></path><path d="M319.74656 227.03872c-1.11104 0.39936-5.85984 9.53856-8.52992 16.41728-0.79616 2.05056-1.65632 2.31936-7.83104 2.45504l-6.9376 0.15104 6.144 0.70144c7.58016 0.86272 7.70816 0.76544 12.85632-9.82272 5.27872-10.85696 7.16032-11.31264 9.0112-2.1888 2.8928 14.25408 3.15648 14.86848 6.656 15.46496 6.14144 1.0496 17.72288 1.6384 14.48448 0.73728-1.6896-0.47104-5.1456-0.91648-7.68-0.99072-9.3184-0.27392-9.1648-0.0768-12.4288-15.7824-1.2032-5.7856-3.06432-8.1024-5.74464-7.1424m-32.61184 18.8288c-1.8304 2.0224-1.7152 2.2016 6.13888 9.68448 9.05472 8.62464 8.96512 8.14848 3.65568 19.1104-6.0544 12.49536-3.65312 14.35136 9.25184 7.1552l9.19808-5.13024 2.82368 2.19904c1.55136 1.21088 5.12512 4.38528 7.94112 7.05536 5.34784 5.0688 6.20288 5.4528 8.6656 3.89376 1.29536-0.81664 1.3184-1.97376 0.17152-8.43008-2.31424-13.02784-2.5088-15.16544-1.37216-15.16544 1.79968 0 16.91392-9.63072 17.3952-11.08736 0.24832-0.74496-1.61536 0.17664-4.14208 2.048-2.52672 1.87392-6.99904 4.70016-9.93792 6.27712-6.02112 3.23584-5.95712 2.86976-3.19744 17.91488 1.89952 10.368 0.67072 10.73664-8.31232 2.49088-10.00192-9.1776-9.24416-8.83456-13.76-6.26176-18.47552 10.52928-19.53792 10.22464-13.1584-3.77344 4.736-10.3936 4.7232-10.4576-3.69664-18.25536-8.1024-7.5008-8.65024-9.83296-2.30912-9.83296 4.38528 0 4.28544-0.4736-0.27904-1.34144-2.43968-0.46336-3.66336-0.11264-5.07648 1.44896m-126.27456 30.76352c-3.26656 1.2288-4.66432 3.29472-6.30528 9.31328-0.74752 2.752-1.73056 5.23008-2.18112 5.50912-0.45312 0.27904-0.82176 1.408-0.82176 2.5088 0 1.1008-0.39936 2.80064-0.88576 3.77856-0.9472 1.89952-1.07776 2.27328-7.40608 21.4912l-4.13184 12.544H111.77472c-27.90144 0-31.90272 0.52992-31.90272 4.22912 0 0.57088 1.21344 0.08448 2.69824-1.08288 2.57536-2.02496 3.93472-2.12224 29.66016-2.12224 25.11616 0 27.03104-0.128 27.968-1.8816 0.55296-1.03424 4.52352-12.42368 8.82432-25.31072 10.0224-30.0416 10.688-31.02464 18.13504-26.74944 1.60768 0.92416 2.64192 1.22368 2.29632 0.6656-1.37984-2.23232-6.11072-3.8272-8.59392-2.8928m9.15456 5.99296c0 0.8448 0.448 2.2272 0.99328 3.072 0.8832 1.36448 0.99328 1.36448 0.99328 0 0-0.8448-0.448-2.2272-0.99328-3.072-0.8832-1.36448-0.99328-1.36448-0.99328 0m2.048 6.144c0 0.8448 0.448 2.2272 0.99328 3.072 0.8832 1.36448 0.99328 1.36448 0.99328 0 0-0.8448-0.448-2.2272-0.99328-3.072-0.8832-1.36448-0.99328-1.36448-0.99328 0m186.94656 5.01248c-1.25952 1.39008-1.63328 4.08576-1.63328 11.72992 0 11.3408 1.06752 10.09664-12.08064 14.07744-12.63616 3.8272-11.99872 6.5664 2.71872 11.67616l8.84992 3.072 0.2944 10.18368c0.29184 10.04544 1.152 12.85632 3.93728 12.85632 1.5744 0 2.23488-0.72448 9.17504-10.06848 4.672-6.29248 4.92544-6.46656 8.50432-5.85216 2.68032 0.46336 3.26912 0.35072 2.15296-0.4096-3.64032-2.48064-6.54592-1.22112-10.752 4.65664-10.37568 14.49472-11.776 14.38464-11.776-0.9216 0-12.20864 0.85504-11.136-12.288-15.42656-10.8544-3.5456-10.50624-5.16352 2.048-9.52832 5.3504-1.86112 9.82784-3.38944 9.94816-3.39712 0.12288-0.00768 0.35328-4.96128 0.512-11.008 0.38144-14.35136 1.4848-14.7456 9.69216-3.456 3.5584 4.89472 6.7072 8.22272 7.81568 8.25344 2.41152 0.06912 12.1984-3.12832 11.55072-3.776-0.27136-0.27392-2.6752 0.24576-5.34272 1.15456-6.85056 2.33472-6.54592 2.48576-13.14816-6.49472-6.68928-9.09056-7.8336-9.91488-10.17856-7.3216m-184.89856 1.13152c0 0.8448 0.448 2.2272 0.99328 3.072 0.8832 1.36448 0.99328 1.36448 0.99328 0 0-0.8448-0.448-2.2272-0.99328-3.072-0.8832-1.36448-0.99328-1.36448-0.99328 0m2.01728 5.71648c0 1.72032 9.47456 29.5936 10.50368 30.89152 0.76288 0.96512 7.52384 1.28 27.46112 1.28 27.93728 0 31.5648 0.51456 31.78496 4.51584 0.33024 5.97248-0.44032 7.07072-9.23648 13.1584-4.98688 3.45088-21.21984 15.43424-23.67232 17.47456-0.8576 0.71168-3.7376 2.79552-6.4 4.62592-3.03104 2.0864-4.84096 4.09344-4.84096 5.36576 0 2.624 5.40672 19.02592 5.83936 17.72288 0.18176-0.54528-0.82688-4.39296-2.24256-8.55296-1.41568-4.16-2.5728-8.1792-2.5728-8.92928 0-0.75008 6.5664-6.22336 14.592-12.16256 8.0256-5.94176 15.29344-11.37408 16.15104-12.07296 0.8576-0.69888 3.71712-2.75456 6.35392-4.5696 8.04608-5.53728 9.8432-9.92512 6.0032-14.67136-1.95072-2.41152-2.03008-2.4192-30.31552-2.92864l-28.35712-0.512-5.0688-15.32928c-4.77184-14.43328-5.98272-17.53088-5.98272-15.30624m214.016 4.60032c-1.11872 0.77824-0.35328 0.88832 2.816 0.40448 5.97248-0.9088 5.76256 0.82176-1.28 10.58816-3.0976 4.29568-5.632 8.28672-5.632 8.87296 0 0.58624 2.5344 4.64128 5.632 9.01376 5.73952 8.09984 6.62528 10.40896 4.352 11.32544-0.76544 0.30976-0.55808 0.5504 0.512 0.59648 3.21024 0.14592 1.97632-3.84768-3.82208-12.35968-4.82304-7.08352-5.4528-8.54272-4.47232-10.37568 1.72544-3.22048 8.41728-12.46208 9.3056-12.8512 0.43008-0.18944 0.7808-1.68704 0.7808-3.328 0-3.23328-4.70016-4.31616-8.192-1.88672M78.94016 339.8144c-0.12032 3.14368 3.76064 6.77632 18.74944 17.5616 6.65344 4.7872 12.62336 9.18784 13.26848 9.77664 0.64256 0.5888 3.26912 2.5088 5.8368 4.26496 8.1664 5.58848 8.27392 6.82752 1.98912 23.3344-0.42752 1.1264-2.28096 6.8864-4.11648 12.8a1036.3776 1036.3776 0 0 1-5.29152 16.59392c-1.7792 5.31456-1.8176 6.11072-0.40704 8.83456 4.07296 7.87968 9.3312 5.53216 42.07104-18.78272 13.57568-10.08384 9.4336-10.85184 33.18528 6.16192 11.40736 8.17152 21.59616 15.31392 22.63808 15.872 5.25056 2.81088 11.28192-0.7424 11.21024-6.59968-0.0384-3.23328-9.95584-33.98656-10.11456-31.36512-0.04864 0.80896 0.79616 4.03456 1.87648 7.168 8.09472 23.488 8.5504 28.20608 2.92352 30.18496-3.31008 1.1648-4.78976 0.4992-14.61504-6.58432a973.58848 973.58848 0 0 0-13.312-9.41056c-3.3792-2.33216-6.3744-4.544-6.656-4.91776-0.2816-0.37376-3.71456-2.816-7.62624-5.42464l-7.1168-4.74624-2.97728 1.88672c-1.6384 1.0368-6.26944 4.23936-10.29376 7.11424-34.92864 24.9728-35.712 25.37472-39.15008 20.13184-2.0096-3.06944-1.54112-6.46144 2.61888-18.94912 12.70016-38.12352 12.66176-37.8752 6.45632-42.14528-2.6624-1.8304-5.5424-3.89632-6.4-4.59008-2.88-2.3296-18.90048-14.20032-25.87136-19.16672-4.96128-3.53792-7.17056-5.8368-7.84384-8.1664-0.78336-2.70848-0.95488-2.84672-1.03168-0.83712M384 343.04c0.8448 0.54528 2.2272 0.99328 3.072 0.99328 1.36448 0 1.36448-0.11008 0-0.99328-0.8448-0.54528-2.2272-0.99328-3.072-0.99328-1.36448 0-1.36448 0.11008 0 0.99328m6.144 2.048c0.8448 0.54528 2.2272 0.99328 3.072 0.99328 1.36448 0 1.36448-0.11008 0-0.99328-0.8448-0.54528-2.2272-0.99328-3.072-0.99328-1.36448 0-1.36448 0.11008 0 0.99328m-29.00992 35.584c-0.77824 1.5488-2.03264 6.38208-2.78784 10.7392-1.56928 9.05216-1.87904 9.28256-14.07232 10.4064-7.02208 0.64512-10.44992 1.984-10.44992 4.07552 0 1.29792 3.14112 4.73088 4.32896 4.73088 2.87232 0 13.66272 8.28928 14.14144 10.86464 0.5504 2.944 0.55552 2.94656 1.23904 0.45312 0.75264-2.75456-0.53248-4.88192-3.79648-6.2848-1.76128-0.75776-8.2304-4.5056-13.75232-7.96672-3.49696-2.19136 4.672-5.25824 14.00576-5.25824 5.63968 0 7.79008-1.63584 8.74496-6.656l1.6-8.44544c1.94816-10.33728 3.87328-10.02752 9.47712 1.53344 4.84864 9.99936 5.3248 10.52672 9.01888 9.96608 20.00128-3.03616 22.10304-1.28768 10.93632 9.09824-6.1824 5.7472-7.63648 7.63136-6.82752 8.83968 0.91136 1.35936 1.02912 1.3568 1.04448-0.02816 0.00768-0.86016 3.24096-4.76416 7.18336-8.67584 10.76992-10.68544 9.87392-12.5568-5.28896-11.05664-10.944 1.08288-10.70592 1.22112-15.19104-8.91136-4.62336-10.4448-7.0784-12.352-9.55392-7.424M384 419.13088c0 0.36096 1.3824 3.67616 3.072 7.36512 5.30688 11.584 4.01664 12.66688-7.38816 6.20544-4.5824-2.59584-8.72192-4.59008-9.20064-4.43136-0.48128 0.16128 0.86784 1.20064 2.9952 2.31424 2.1248 1.1136 6.07488 3.29728 8.77568 4.85632 9.26976 5.34784 11.27424 2.80064 6.42304-8.15872-3.0464-6.88896-4.67712-9.728-4.67712-8.15104m-33.6 12.5184c-2.39616 13.05088 0.1152 13.82656 11.072 3.42272 4.224-4.01152 6.528-6.43584 5.12-5.38624-1.408 1.0496-4.95104 4.10112-7.87456 6.784-7.53408 6.90944-9.96096 6.03904-7.51872-2.69056 0.68096-2.432 1.07776-5.52704 0.8832-6.87616-0.20736-1.42336-0.91392 0.57344-1.68192 4.74624m-31.18592 14.04672a339.328 339.328 0 0 0-6.33344 8.192c-3.44832 4.64384-5.34272 4.72832-15.40864 0.68608-12.61824-5.06624-14.016-1.04192-4.18048 12.04224 5.70368 7.58528 5.82144 5.82144-1.06496 16.1664-7.72608 11.61216-6.14912 14.3872 5.75744 10.13248 11.67104-4.17024 11.92192-4.09344 18.73664 5.7728 8.15872 11.81184 10.19392 10.8928 10.95936-4.96128l0.512-10.59584 7.68-2.50368c11.2128-3.65568 12.43904-4.41344 12.08064-7.47264-0.19456-1.66912-1.04192-2.73664-2.35264-2.96704-2.00448-0.34816-2.00448-0.32256-0.0896 1.12384 3.30496 2.49856 1.23136 4.29824-9.01632 7.82848l-9.83808 3.392-0.0128 9.35936c-0.0256 16.34048-0.96512 16.84224-9.72544 5.20192-7.36256-9.78176-8.01024-9.91488-21.7984-4.45696-8.54528 3.38432-9.07008 0.43776-1.74336-9.77408 3.0976-4.31872 5.632-8.43264 5.632-9.14432s-2.5344-4.68224-5.632-8.82176c-8.6272-11.53024-7.64416-12.85632 6.1824-8.34816 11.0592 3.60448 9.99936 3.97312 17.2672-6.01856 7.552-10.38848 8.78848-10.49088 8.86528-0.73728 0.1152 14.41024 0.4352 15.07584 8.61952 17.83552 3.92448 1.32352 7.58784 2.25792 8.13824 2.0736 0.5504-0.18432-2.432-1.45408-6.62784-2.82624l-7.6288-2.49088-0.512-10.24c-0.72192-14.41792-2.37056-16.064-8.46592-8.448" fill="#FC8455" p-id="12045"></path><path d="M290.90048 244.08832c0.23552 0.20736 2.27072 0.65792 4.52352 1.00096 2.8544 0.43264 3.47648 0.34048 2.048-0.30464-1.96608-0.89088-7.4496-1.472-6.57152-0.69632m-5.20448 4.35456c0 0.5376 2.4192 3.264 5.376 6.05952l5.376 5.0816-5.12-5.61152c-2.816-3.0848-5.2352-5.8112-5.376-6.05696-0.1408-0.24832-0.256-0.01024-0.256 0.52736m44.544 0.38912c1.1264 0.48384 2.7392 0.88064 3.584 0.88064 0.96768 0 0.77824-0.32512-0.512-0.88064-1.1264-0.48384-2.7392-0.88064-3.584-0.88064-0.96768 0-0.77824 0.32512 0.512 0.88064m3.22048 24.576c0.81152 4.416 1.39264 5.25056 1.37216 1.96352-0.00768-1.36192-0.46848-3.16672-1.024-4.01152-0.70656-1.08032-0.81152-0.4736-0.34816 2.048m-19.70176 4.25216c-0.43264 0.70144-0.28416 0.9088 0.36352 0.50688 0.60416-0.3712 2.51904 0.51968 4.25472 1.98144 1.73824 1.46176 3.15904 2.32192 3.15904 1.91232 0-0.7936-2.45504-2.90816-5.31456-4.57728-1.18784-0.69376-1.9584-0.64-2.46272 0.17664m44.51072 78.94784c1.55392 1.97888 3.7632 2.34496 4.73088 0.7808 0.36096-0.58368-0.05376-0.75264-0.97536-0.39936-0.8832 0.33792-2.40384-0.0128-3.38176-0.77824-1.61024-1.26208-1.64608-1.22368-0.37376 0.3968m-235.97824 22.91456c-0.04864 2.1632 0.24064 3.008 0.75008 2.2016 1.0496-1.65376 1.10336-4.62336 0.09472-5.24288-0.4224-0.25856-0.80384 1.11104-0.8448 3.04128m263.7568 16.69376c-1.6128 0.47104 0.14592 0.71936 4.75648 0.6656 4.02176-0.04608 7.10656-0.42752 6.85056-0.84992-0.57344-0.94976-8.13824-0.82944-11.60704 0.18432m-49.5488 6.03136c-0.28672 0.4608 0.83968 0.63744 2.49856 0.39424 1.66144-0.2432 3.01824-0.61952 3.01824-0.83712 0-0.7808-5.00992-0.37888-5.5168 0.44288m57.68448 3.00032l-3.52768 3.84 3.84-3.52768c3.57376-3.28704 4.31104-4.15232 3.52768-4.15232-0.16896 0-1.89696 1.728-3.84 3.84m-44.32128 12.544c0.6528 0.8448 1.39008 2.9184 1.6384 4.608l0.448 3.072 0.1536-3.20256c0.09472-1.97632-0.53248-3.74016-1.6384-4.608-1.55904-1.22368-1.6384-1.20576-0.6016 0.13056m-131.58656 11.3152c-0.0896 1.99936-0.73728 4.30336-1.43616 5.12-0.71424 0.83456-0.45824 0.76288 0.58624-0.16384 1.3184-1.16736 1.73824-2.6624 1.43872-5.12l-0.42496-3.47136-0.16384 3.6352m-24.73984-1.72544c0 0.2816 1.3824 1.49504 3.072 2.69824 1.6896 1.2032 3.072 1.95584 3.072 1.67424 0-0.2816-1.3824-1.49504-3.072-2.69824-1.6896-1.2032-3.072-1.95584-3.072-1.67424m156.28544 2.22464c-0.35072 0.91648-0.59136 2.66496-0.53248 3.88608 0.06656 1.40288 0.41472 0.90368 0.94464-1.3568 0.896-3.80672 0.6528-5.2992-0.41216-2.52928m-143.54688 7.0528c1.09568 0.88832 3.16928 1.56672 4.608 1.50784 2.41152-0.09728 2.36544-0.1664-0.54016-0.86016-1.73824-0.41472-3.81184-1.09312-4.608-1.50784-0.79616-0.41216-0.55296-0.0256 0.54016 0.86016m120.256 6.41024c0.63232 1.2288 1.14944 6.3872 1.14944 11.45856 0 5.07392 0.3456 9.43872 0.768 9.69984 1.45408 0.90624-0.16896-20.6592-1.66144-22.06976-1.18272-1.11616-1.22368-0.9728-0.256 0.91136m-32.0896 26.16832c1.55904 2.176 2.48064 4.52096 2.13248 5.42976-0.35328 0.91904-0.18432 1.33376 0.39936 0.9728 1.7408-1.0752 1.12128-3.01568-2.13504-6.68672l-3.14624-3.5456 2.74944 3.82976m33.7536 14.34624c-0.8064 2.32448-1.04192 21.0688-0.25856 20.57984 0.4224-0.26112 0.768-5.02016 0.768-10.57024 0-7.1168 0.37632-10.24768 1.28-10.6112 1.00352-0.40448 0.99584-0.53504-0.03328-0.59648-0.71936-0.04608-1.5104 0.49408-1.75616 1.19808m-42.13248 7.4368c-0.81664 2.1248 1.46688 4.61824 4.11136 4.4928 1.93024-0.0896 1.88672-0.18432-0.38144-0.832-1.76896-0.50432-2.5344-1.4208-2.47808-2.9696 0.09472-2.6112-0.4096-2.88768-1.25184-0.6912" fill="#FC6954" p-id="12046"></path><path d="M297.472 244.74624c1.96352 0.83456 10.52416 1.40544 9.64352 0.64512-0.23552-0.20224-2.96192-0.6272-6.05952-0.94208-3.50464-0.35584-4.85888-0.24576-3.584 0.29696m40.20992 4.82816c1.84064 0.22784 4.60544 0.22272 6.144-0.01024s0.03328-0.41984-3.34592-0.41472c-3.3792 0.00512-4.63872 0.19712-2.79808 0.42496m-41.74592 10.04288c0 0.55552 0.9472 1.6 2.10432 2.32448 1.4976 0.9344 1.92512 1.96352 1.4848 3.57376-0.5632 2.07104-0.51456 2.0992 0.57344 0.35072 0.99072-1.58976 0.7424-2.35264-1.48736-4.5824-1.472-1.472-2.6752-2.22208-2.6752-1.66656M340.48 263.168c-1.6896 1.11872-2.6112 2.02752-2.048 2.01728 1.02656-0.01536 6.59456-4.0064 5.632-4.03456-0.2816-0.01024-1.8944 0.89856-3.584 2.01728m-172.55936 14.28992c1.40032 1.0752 2.74944 1.75104 2.99776 1.50272 0.57856-0.58112-3.16416-3.43552-4.5184-3.44832-0.5632-0.00512 0.12032 0.86784 1.52064 1.9456m153.67168 5.93408c0.03072 0.4224 1.52832 1.88928 3.328 3.26144l3.27168 2.496-3.008-3.264c-3.12832-3.392-3.6864-3.78112-3.59168-2.49344m37.06368 8.1024c-0.704 0.28416-1.28 0.99584-1.28 1.57952 0 0.65792 0.56832 0.59392 1.48736-0.16896 0.832-0.6912 2.52416-0.94208 3.84-0.57088 1.8304 0.51712 2.01216 0.42496 0.81664-0.41216-1.64096-1.14944-2.82112-1.25184-4.864-0.42752m39.72864 13.7472c0.96512 1.8048 0.56576 3.01056-2.5344 7.68-2.0224 3.04896-3.44832 5.5424-3.16672 5.5424 2.0352 0 7.7696-11.27168 6.72512-13.2224-0.62976-1.17504-1.37472-2.1376-1.65632-2.1376-0.2816 0 0.00256 0.96256 0.63232 2.1376m-23.83872 2.17344c1.89184 1.89184 2.47552 2.03776 3.55584 0.87552 1.05984-1.14432 0.96256-1.27744-0.54016-0.74752-1.1392 0.40192-2.05056 0.07424-2.41408-0.87296-0.32-0.83456-1.09568-1.51808-1.72544-1.51808-0.6272 0-0.12288 1.01888 1.12384 2.26304m-39.6672 17.19296c0 1.7664 1.71008 4.7872 2.30144 4.06528 0.2176-0.26368-0.20992-1.63328-0.95232-3.04128-0.74496-1.41056-1.34912-1.87136-1.34912-1.024m-238.30528 6.90944c7.77728 0.17408 20.21888 0.17408 27.648 0 7.42912-0.17408 1.06496-0.31744-14.14144-0.31744s-21.28384 0.14336-13.50656 0.31744m106.496 0c7.77728 0.17408 20.21888 0.17408 27.648 0 7.42912-0.17408 1.06496-0.31744-14.14144-0.31744s-21.28384 0.14336-13.50656 0.31744m-123.82464 2.84928c-0.9344 1.42592-1.51296 2.78016-1.28512 3.008 0.22784 0.22784 1.1904-0.93952 2.14016-2.59328 2.112-3.68128 1.4848-3.98592-0.85504-0.41472M396.38272 337.92c2.96704 4.59776 2.97728 4.61056 2.97216 3.49952-0.00256-0.51712-1.19296-2.32192-2.64448-4.01152l-2.63936-3.072 2.31168 3.584M77.824 341.73184c0 0.59392 0.94976 2.16832 2.10944 3.49952l2.10688 2.41664-1.79712-3.072c-2.368-4.04224-2.4192-4.10368-2.4192-2.84416m5.52704 6.2592c0.34048 0.5504 2.97216 2.69312 5.84448 4.75648 2.87488 2.06592 4.94592 3.3024 4.60544 2.74944-0.34048-0.5504-2.97216-2.69312-5.84448-4.75648-2.87488-2.06592-4.94592-3.3024-4.60544-2.74944m152.68096 4.80768c-4.0064 3.28448-2.92608 3.26144 1.536-0.03072 1.9072-1.408 3.0336-2.54464 2.50368-2.52416-0.53248 0.02048-2.35008 1.16992-4.03968 2.55488M109.568 367.36c0 0.43264 0.9216 1.36192 2.048 2.06592 1.1264 0.704 2.048 0.92672 2.048 0.49408 0-0.43264-0.9216-1.36192-2.048-2.06592-1.1264-0.704-2.048-0.92672-2.048-0.49408m8.192 6.144c0 0.43264 0.9216 1.36192 2.048 2.06592 1.1264 0.704 2.048 0.92672 2.048 0.49408 0-0.43264-0.9216-1.36192-2.048-2.06592-1.1264-0.704-2.048-0.92672-2.048-0.49408m2.30144 12.5184c-1.79968 5.76512-1.50016 7.59808 0.36864 2.26048 0.85248-2.432 1.40544-4.85632 1.2288-5.38624-0.17664-0.53248-0.896 0.87552-1.59744 3.12576m262.91456 10.31168c-1.12128 0.76032-0.70656 0.85504 1.536 0.35328 3.76576-0.84224 4.5824-1.42848 1.96352-1.408-1.08032 0.00768-2.65472 0.48384-3.49952 1.05472m-34.304 4.04992c-0.74752 1.21088 0.25344 1.21088 3.072 0 1.97376-0.84736 1.96864-0.8832-0.19456-0.95232-1.23392-0.0384-2.52928 0.38912-2.87744 0.95232m47.70304 3.46368l-2.4704 3.19232 2.92864-2.78528c1.6128-1.53088 2.72384-2.96704 2.47296-3.19232-0.25344-0.22528-1.57184 1.02912-2.9312 2.78528m-63.45728 2.29888c-0.064 1.19808 0.68864 2.81088 1.67424 3.584 1.55904 1.22112 1.6384 1.20576 0.62208-0.13056-0.64256-0.8448-1.3952-2.4576-1.67424-3.584-0.47616-1.9456-0.50944-1.93792-0.62208 0.13056m-178.73152 6.08768c-1.08544 0.79104-1.77408 1.6384-1.53344 1.87904 0.24064 0.24064 1.32608-0.20992 2.40896-1.00352 1.08544-0.79104 1.77408-1.6384 1.53344-1.87904-0.24064-0.24064-1.32608 0.20992-2.40896 1.00352m27.06176 7.33696c0 0.99584 4.13184 3.64544 4.73856 3.03872 0.24576-0.24576-0.72192-1.20832-2.14784-2.14272-1.42336-0.9344-2.59072-1.33888-2.59072-0.896m-54.784 12.75904c-6.18496 4.52864-6.8224 5.6704-1.024 1.8304 6.23616-4.12672 6.06976-3.9936 5.54752-4.4544-0.23552-0.20736-2.27072 0.97536-4.52352 2.624m221.01504 5.49888c-0.33792 0.8832-0.15104 2.06848 0.41728 2.6368 0.69376 0.69376 1.03168 0.1664 1.03168-1.60512 0-2.9952-0.54528-3.38432-1.44896-1.03168m10.34496 1.72288L354.816 442.88l3.57888-3.072c1.96864-1.6896 3.77344-3.1872 4.01152-3.328 0.23552-0.1408-0.02048-0.256-0.57088-0.256-0.55296 0-2.35776 1.4976-4.01152 3.328m-36.544 1.16992c-0.9856 0.74752-1.792 1.74592-1.792 2.21952 0 0.4736 0.55296 0.3072 1.2288-0.36864 1.80992-1.80992 5.6832-1.49504 6.88128 0.5632 0.57344 0.9856 1.05728 1.28768 1.0752 0.67072 0.0896-3.24608-4.60288-5.20448-7.39328-3.0848m26.32448 35.50976c-0.37376 0.6016-1.66656 1.49504-2.87744 1.984-1.50016 0.60416-1.67936 0.90624-0.56576 0.95232 0.89856 0.03584 2.46784-0.8576 3.48672-1.984 1.01888-1.1264 1.57952-2.048 1.24416-2.048-0.33792 0-0.91648 0.49408-1.28768 1.09568m-56.25088 5.14816c-2.06336 2.87232-3.5968 5.37344-3.40992 5.56288 0.18944 0.18688 2.09152-2.1632 4.22912-5.2224 2.1376-3.05664 3.67104-5.56032 3.40992-5.56032-0.26368 0-2.16576 2.35008-4.22912 5.21984" fill="#FC5454" p-id="12047"></path></svg>
