<svg width="20" height="18" viewBox="0 0 20 18" fill="none" xmlns="http://www.w3.org/2000/svg">
<path d="M1.44578 3.24911L5.35062 5.86282L9.24335 0.391039C9.54184 -0.0285429 10.1226 -0.125724 10.5405 0.17397C10.624 0.233853 10.697 0.307199 10.7567 0.391039L14.6495 5.86282L18.5543 3.24911C18.9817 2.96309 19.5589 3.07902 19.8438 3.50805C19.9663 3.69255 20.0194 3.9148 19.9936 4.13502L18.4657 17.1754C18.4105 17.6456 18.0136 18 17.5421 18H2.45799C1.98646 18 1.58957 17.6456 1.53447 17.1754L0.00645863 4.13502C-0.0535468 3.62292 0.311284 3.15895 0.821325 3.0987C1.04067 3.07279 1.26203 3.12611 1.44578 3.24911ZM10.0001 12.3982C11.0271 12.3982 11.8599 11.5623 11.8599 10.531C11.8599 9.49969 11.0271 8.66372 10.0001 8.66372C8.97294 8.66372 8.14032 9.49969 8.14032 10.531C8.14032 11.5623 8.97294 12.3982 10.0001 12.3982Z" fill="url(#paint0_linear_2838_2073)"/>
<defs>
<linearGradient id="paint0_linear_2838_2073" x1="20" y1="9" x2="0" y2="9" gradientUnits="userSpaceOnUse">
<stop stop-color="#AB3EB6"/>
<stop offset="1" stop-color="#9145DF"/>
</linearGradient>
</defs>
</svg>
