<?xml version="1.0" standalone="no"?><!DOCTYPE svg PUBLIC "-//W3C//DTD SVG 1.1//EN" "http://www.w3.org/Graphics/SVG/1.1/DTD/svg11.dtd"><svg t="1762612349099" class="icon" viewBox="0 0 1084 1024" version="1.1" xmlns="http://www.w3.org/2000/svg" p-id="938" xmlns:xlink="http://www.w3.org/1999/xlink" width="135.5" height="128" fill="currentColor"><path d="M161.144 363.23333333L217.89694092 845.68627425H855.09694092l56.75294179-482.45294092-176.92941182 117.95294092-198.42352997-277.83529365-198.47647003 277.83529365-176.87647089-117.95294092zM130.64988271 236.86274515l185.29411729 123.51176454L500.54988271 101.80980422a44.1 44.1 0 0 1 71.78823458 1e-8l184.65882363 258.56470546 185.29411816-123.51176454a44.1 44.1 0 0 1 68.29411729 41.8235291l-72.52941182 616.23529453a44.15294092 44.15294092 0 0 1-43.78235273 38.96470547H178.6675291a44.1 44.1 0 0 1-43.83529365-38.96470547L62.30282363 278.68627425a44.1 44.1 0 0 1 68.29411729-41.8235291z m405.84705821 432.31764726a88.25294092 88.25294092 0 1 1 0-176.45294179 88.25294092 88.25294092 0 0 1 0 176.45294179z" p-id="939"></path></svg>
