<?xml version="1.0" standalone="no"?><!DOCTYPE svg PUBLIC "-//W3C//DTD SVG 1.1//EN" "http://www.w3.org/Graphics/SVG/1.1/DTD/svg11.dtd"><svg t="1762609724435" class="icon" viewBox="0 0 1024 1024" version="1.1" xmlns="http://www.w3.org/2000/svg" p-id="922" xmlns:xlink="http://www.w3.org/1999/xlink" width="128" height="128" fill="currentColor"><path d="M830.592 392.27733333l10.496-24.149333a186.154667 186.154667 0 0 1 94.72-96l32.384-14.464a22.613333 22.613333 0 0 0 0-41.088l-30.592-13.610667a186.282667 186.282667 0 0 1-96.042667-99.242667l-10.794666-26.069333a21.589333 21.589333 0 0 0-40.192 0l-10.794667 26.026667a186.282667 186.282667 0 0 1-96 99.285333l-30.634667 13.653333a22.613333 22.613333 0 0 0 0 41.045334l32.426667 14.421333a186.154667 186.154667 0 0 1 94.677333 96.042667l10.496 24.149333c7.68 17.664 32.128 17.664 39.850667 0z m-259.413333-100.48c11.690667 18.517333 27.690667 32.170667 47.957333 41.002667l24.106667 10.538666c24.32 10.581333 41.728 27.648 52.181333 51.114667l14.421333 32.426667c31.018667 69.845333 123.349333 80.810667 173.738667 33.024l3.882667 5.162666a42.666667 42.666667 0 0 1-2.432 54.144l-384 426.666667a42.666667 42.666667 0 0 1-63.402667 0l-384-426.666667A42.666667 42.666667 0 0 1 51.2 465.06666633l128-170.666666A42.666667 42.666667 0 0 1 213.333333 277.33333333h350.122667c2.176 4.949333 4.736 9.770667 7.68 14.464z" p-id="923"></path></svg>
