<svg width="24" height="18" viewBox="0 0 24 18" fill="none" xmlns="http://www.w3.org/2000/svg">
<path d="M19.545 1.46305C18.082 0.781051 16.498 0.286051 14.848 5.0598e-05C14.8335 -0.000412066 14.8191 0.00230283 14.8058 0.00800443C14.7925 0.013706 14.7806 0.0222559 14.771 0.0330508C14.573 0.396051 14.342 0.869051 14.188 1.23205C12.4379 0.968051 10.6581 0.968051 8.90798 1.23205C8.75398 0.858051 8.52298 0.396051 8.31398 0.0330508C8.30298 0.0110508 8.26998 5.0598e-05 8.23698 5.0598e-05C6.58698 0.286051 5.01398 0.781051 3.53998 1.46305C3.52898 1.46305 3.51798 1.47405 3.50698 1.48505C0.514981 5.96205 -0.31002 10.3181 0.0969805 14.6301C0.0969805 14.6521 0.10798 14.6741 0.12998 14.6851C2.10998 16.1371 4.01298 17.0171 5.89398 17.6001C5.92698 17.6111 5.95998 17.6001 5.97098 17.5781C6.41098 16.9731 6.80698 16.3351 7.14798 15.6641C7.16998 15.6201 7.14798 15.5761 7.10398 15.5651C6.47698 15.3231 5.88298 15.0371 5.29998 14.7071C5.25598 14.6851 5.25598 14.6191 5.28898 14.5861C5.40998 14.4981 5.53098 14.3991 5.65198 14.3111C5.67398 14.2891 5.70698 14.2891 5.72898 14.3001C9.51298 16.0271 13.594 16.0271 17.334 14.3001C17.356 14.2891 17.389 14.2891 17.411 14.3111C17.532 14.4101 17.653 14.4981 17.774 14.5971C17.818 14.6301 17.818 14.6961 17.763 14.7181C17.191 15.0591 16.586 15.3341 15.959 15.5761C15.915 15.5871 15.904 15.6421 15.915 15.6751C16.267 16.3461 16.663 16.9841 17.092 17.5891C17.125 17.6001 17.158 17.6111 17.191 17.6001C19.083 17.0171 20.986 16.1371 22.966 14.6851C22.988 14.6741 22.999 14.6521 22.999 14.6301C23.483 9.64705 22.196 5.32405 19.589 1.48505C19.578 1.47405 19.567 1.46305 19.545 1.46305ZM7.71998 12.0011C6.58698 12.0011 5.64098 10.9561 5.64098 9.66905C5.64098 8.38205 6.56498 7.33705 7.71998 7.33705C8.88598 7.33705 9.80998 8.39305 9.79898 9.66905C9.79898 10.9561 8.87498 12.0011 7.71998 12.0011ZM15.387 12.0011C14.254 12.0011 13.308 10.9561 13.308 9.66905C13.308 8.38205 14.232 7.33705 15.387 7.33705C16.553 7.33705 17.477 8.39305 17.466 9.66905C17.466 10.9561 16.553 12.0011 15.387 12.0011Z" fill="currentColor"/>
</svg>
