<svg width="19" height="19" viewBox="0 0 19 19" fill="none" xmlns="http://www.w3.org/2000/svg">
<path d="M2.32244 3.74458C2.42367 3.63275 2.5282 3.52285 2.63604 3.41501C3.11945 2.9316 3.64417 2.51468 4.19883 2.16425C3.8849 2.07772 3.60274 2.02647 3.35542 2.00781C2.78308 1.96465 2.53243 2.10056 2.42553 2.20746C2.31863 2.31436 2.18272 2.56501 2.22589 3.13734C2.23974 3.32096 2.27156 3.5238 2.32244 3.74458ZM17.7257 11.9897C17.7873 12.1127 17.8463 12.2347 17.9028 12.3556C18.3793 13.3767 18.6941 14.3734 18.7616 15.2693C18.8289 16.1609 18.656 17.0897 17.9819 17.7638C17.3077 18.438 16.379 18.6108 15.4874 18.5436C14.7068 18.4847 13.8497 18.2382 12.9666 17.8605L12.964 17.8617C12.8109 17.7962 12.657 17.7268 12.5025 17.6536C10.4695 16.6913 8.1435 14.9995 5.9599 12.8159C3.77855 10.6346 2.08807 8.31119 1.1252 6.27972C1.05178 6.12481 0.982049 5.97047 0.916289 5.81695L0.917339 5.81481C0.538149 4.92951 0.290569 4.07021 0.231549 3.28776C0.164299 2.39612 0.33717 1.46739 1.01132 0.79324C1.68547 0.1191 2.61419 -0.0537699 3.50583 0.0134801C4.40174 0.0810501 5.3984 0.39584 6.41949 0.87234C6.54253 0.92976 6.66667 0.98988 6.79181 1.05265C9.7623 0.30396 13.0404 1.09141 15.364 3.41501C17.6882 5.73928 18.4755 9.01849 17.7257 11.9897ZM16.6128 14.5832C16.2627 15.1368 15.8465 15.6604 15.364 16.1429C15.257 16.2499 15.1479 16.3537 15.037 16.4542C15.2553 16.5042 15.456 16.5355 15.6378 16.5492C16.2101 16.5924 16.4608 16.4565 16.5677 16.3496C16.6746 16.2427 16.8105 15.9921 16.7673 15.4197C16.7488 15.1742 16.6982 14.8944 16.6128 14.5832ZM2.63604 16.1429C0.37241 13.8793 -0.433341 10.7099 0.218769 7.80139C1.30105 9.78219 2.92374 11.9011 4.89924 13.8766C6.87632 15.8537 8.9971 17.4775 10.9794 18.5598C8.0705 19.2127 4.90015 18.4071 2.63604 16.1429Z" fill="currentColor"/>
</svg>
