<svg width="26" height="16" viewBox="0 0 26 16" fill="none" xmlns="http://www.w3.org/2000/svg">
<path d="M16.2427 1.68909H9.32812V14.1147H16.2427V1.68909Z" fill="#FF5F00"/>
<path d="M9.76752 7.90233C9.76642 6.70565 10.0376 5.52442 10.5605 4.44803C11.0834 3.37165 11.8444 2.42834 12.7857 1.68952C11.62 0.773209 10.22 0.20337 8.74565 0.0451318C7.27135 -0.113106 5.78227 0.146643 4.44861 0.79469C3.11495 1.44274 1.99052 2.45293 1.20385 3.70982C0.417178 4.9667 0 6.41956 0 7.90233C0 9.3851 0.417178 10.838 1.20385 12.0948C1.99052 13.3517 3.11495 14.3619 4.44861 15.01C5.78227 15.658 7.27135 15.9178 8.74565 15.7595C10.22 15.6013 11.62 15.0315 12.7857 14.1151C11.8444 13.3763 11.0834 12.433 10.5605 11.3566C10.0376 10.2802 9.76643 9.099 9.76752 7.90233Z" fill="#EB001B"/>
<path d="M25.5715 7.90233C25.5715 9.38508 25.1544 10.8379 24.3678 12.0948C23.5812 13.3517 22.4568 14.3619 21.1231 15.01C19.7895 15.658 18.3004 15.9178 16.8262 15.7595C15.3519 15.6013 13.9519 15.0315 12.7861 14.1151C13.7267 13.3756 14.487 12.4321 15.0099 11.3559C15.5327 10.2797 15.8043 9.09881 15.8043 7.90233C15.8043 6.70584 15.5327 5.52497 15.0099 4.44876C14.487 3.37255 13.7267 2.42909 12.7861 1.68952C13.9519 0.773207 15.3519 0.203367 16.8262 0.0451304C18.3004 -0.113106 19.7895 0.146648 21.1231 0.794702C22.4568 1.44276 23.5812 2.45296 24.3678 3.70984C25.1544 4.96673 25.5715 6.41958 25.5715 7.90233Z" fill="#F79E1B"/>
<path d="M24.8169 12.7988V12.5444H24.9194V12.4926H24.6582V12.5444H24.7608V12.7988H24.8169ZM25.324 12.7988V12.4921H25.244L25.1519 12.703L25.0597 12.4921H24.9796V12.7988H25.0362V12.5674L25.1225 12.7669H25.1812L25.2675 12.5669V12.7988H25.324Z" fill="#F79E1B"/>
</svg>
