<svg width="11" height="15" viewBox="0 0 11 15" fill="none" xmlns="http://www.w3.org/2000/svg">
<path d="M8.66667 9.49693V14.0779C8.66667 14.262 8.5174 14.4113 8.33333 14.4113C8.27293 14.4113 8.21367 14.3949 8.16187 14.3638L5.33333 12.6667L2.50483 14.3638C2.34697 14.4585 2.14222 14.4073 2.0475 14.2495C2.01642 14.1976 2 14.1383 2 14.0779V9.49693C0.780713 8.51953 0 7.0176 0 5.33333C0 2.38781 2.38781 0 5.33333 0C8.27887 0 10.6667 2.38781 10.6667 5.33333C10.6667 7.0176 9.88593 8.51953 8.66667 9.49693ZM3.33333 10.279V12.3117L5.33333 11.1117L7.33333 12.3117V10.279C6.71573 10.529 6.0406 10.6667 5.33333 10.6667C4.62607 10.6667 3.95095 10.529 3.33333 10.279ZM5.33333 9.33333C7.54247 9.33333 9.33333 7.54247 9.33333 5.33333C9.33333 3.12419 7.54247 1.33333 5.33333 1.33333C3.12419 1.33333 1.33333 3.12419 1.33333 5.33333C1.33333 7.54247 3.12419 9.33333 5.33333 9.33333Z" fill="currentColor"/>
</svg>
