<?xml version="1.0" standalone="no"?><!DOCTYPE svg PUBLIC "-//W3C//DTD SVG 1.1//EN" "http://www.w3.org/Graphics/SVG/1.1/DTD/svg11.dtd"><svg t="1761296197420" class="icon" viewBox="0 0 1024 1024" version="1.1" xmlns="http://www.w3.org/2000/svg" p-id="2036" xmlns:xlink="http://www.w3.org/1999/xlink" width="128" height="128"><path fill="currentColor" d="M873.258667 370.944l10.496-24.149333a186.154667 186.154667 0 0 1 94.72-96l32.384-14.464a22.613333 22.613333 0 0 0 0-41.088l-30.592-13.610667a186.282667 186.282667 0 0 1-96.042667-99.242667l-10.794667-26.069333a21.589333 21.589333 0 0 0-40.192 0l-10.794666 26.026667a186.282667 186.282667 0 0 1-96 99.285333l-30.634667 13.653333a22.613333 22.613333 0 0 0 0 41.045334l32.426667 14.421333a186.154667 186.154667 0 0 1 94.677333 96.042667l10.496 24.149333c7.68 17.664 32.128 17.664 39.850667 0zM853.333333 469.333333a255.573333 255.573333 0 0 0 85.333334-14.549333v398.848a42.666667 42.666667 0 0 1-42.325334 42.368H127.658667A42.368 42.368 0 0 1 85.333333 853.632V170.368A42.666667 42.666667 0 0 1 127.658667 128h484.266666A256 256 0 0 0 853.333333 469.333333zM170.666667 213.333333v85.333334h85.333333V213.333333H170.666667z m0 170.666667v85.333333h85.333333V384H170.666667z m0 170.666667v85.333333h85.333333v-85.333333H170.666667z m597.333333 0v85.333333h85.333333v-85.333333h-85.333333zM170.666667 725.333333v85.333334h85.333333v-85.333334H170.666667z m597.333333 0v85.333334h85.333333v-85.333334h-85.333333z" p-id="2037"></path></svg>