<svg width="32" height="32" viewBox="0 0 32 32" fill="none" xmlns="http://www.w3.org/2000/svg">
<path d="M28.0117 4C28.7418 4.00025 29.3338 4.59325 29.334 5.32422V16.8428C28.3428 16.3049 27.2069 16 26 16C24.2074 16 22.5724 16.674 21.334 17.7822V6.66699H10.667V25.333H19.3994C19.7591 26.3507 20.3472 27.2601 21.1025 28H3.98926C3.25909 27.9999 2.66716 27.4069 2.66699 26.6758V5.32422C2.66717 4.59289 3.2741 4.00007 3.98926 4H28.0117ZM5.33398 25.333H8V22.667H5.33398V25.333ZM5.33398 20H8V17.333H5.33398V20ZM5.33398 14.667H8V12H5.33398V14.667ZM24 14.667H26.667V12H24V14.667ZM5.33398 9.33301H8V6.66699H5.33398V9.33301ZM24 9.33301H26.667V6.66699H24V9.33301Z" fill="currentColor"/>
<path d="M26 22.1111L29.1111 19L30 19.8889L26.8889 23L30 26.1111L29.1111 27L26 23.8889L22.8889 27L22 26.1111L25.1111 23L22 19.8889L22.8889 19L26 22.1111Z" fill="currentColor" />
</svg>
