<svg width="17" height="17" viewBox="0 0 17 17" fill="none" xmlns="http://www.w3.org/2000/svg">
<path d="M10.4167 0C12.0275 0 13.3334 1.30583 13.3334 2.91667C13.3334 3.36433 13.2325 3.78845 13.0523 4.16753L15.8334 4.16667C16.2936 4.16667 16.6667 4.53976 16.6667 5V8.33333C16.6667 8.79358 16.2936 9.16666 15.8334 9.16666H15V15.8333C15 16.2936 14.6269 16.6667 14.1667 16.6667H2.5C2.03977 16.6667 1.66667 16.2936 1.66667 15.8333V9.16666H0.833333C0.3731 9.16666 0 8.79358 0 8.33333V5C0 4.53976 0.3731 4.16667 0.833333 4.16667L3.61442 4.16753C3.43419 3.78845 3.33333 3.36433 3.33333 2.91667C3.33333 1.30583 4.63918 0 6.25 0C7.06668 0 7.80493 0.335633 8.33435 0.876483C8.86177 0.335633 9.60002 0 10.4167 0ZM13.3334 9.16666H3.33333V15H13.3334V9.16666ZM15 5.83333H1.66667V7.49999H15V5.83333ZM6.25 1.66667C5.55965 1.66667 5 2.22631 5 2.91667C5 3.56641 5.49574 4.10038 6.12962 4.16094L6.25 4.16667H7.50002V2.91667C7.50002 2.26692 7.00427 1.73296 6.37038 1.67238L6.25 1.66667ZM10.4167 1.66667L10.2963 1.67238C9.70202 1.72917 9.22918 2.20202 9.17235 2.79628L9.16668 2.91667V4.16667H10.4167L10.537 4.16094C11.1709 4.10038 11.6667 3.56641 11.6667 2.91667C11.6667 2.26692 11.1709 1.73296 10.537 1.67238L10.4167 1.66667Z" fill="url(#paint0_linear_2373_1154)"/>
<defs>
<linearGradient id="paint0_linear_2373_1154" x1="-0.07747" y1="0.668705" x2="18.2738" y2="2.79471" gradientUnits="userSpaceOnUse">
<stop stop-color="#DD429D"/>
<stop offset="0.5" stop-color="#B14BF4"/>
<stop offset="1" stop-color="#485CFB"/>
</linearGradient>
</defs>
</svg>
