<svg width="17" height="15" viewBox="0 0 17 15" fill="none" xmlns="http://www.w3.org/2000/svg">
<path d="M8.6785 1.66667H15.8333C16.2936 1.66667 16.6667 2.03977 16.6667 2.5V14.1667C16.6667 14.6269 16.2936 15 15.8333 15H0.833333C0.3731 15 0 14.6269 0 14.1667V0.833333C0 0.3731 0.3731 0 0.833333 0H7.01183L8.6785 1.66667ZM1.66667 1.66667V13.3333H15V3.33333H7.98817L6.32149 1.66667H1.66667ZM5 12.5C5 10.6591 6.49238 9.16667 8.33333 9.16667C10.1742 9.16667 11.6667 10.6591 11.6667 12.5H5ZM8.33333 8.33333C7.18275 8.33333 6.25 7.40058 6.25 6.25C6.25 5.09941 7.18275 4.16667 8.33333 4.16667C9.48392 4.16667 10.4167 5.09941 10.4167 6.25C10.4167 7.40058 9.48392 8.33333 8.33333 8.33333Z" fill="currentColor"/>
</svg>
