<svg width="17" height="15" viewBox="0 0 17 15" fill="none" xmlns="http://www.w3.org/2000/svg">
<path fill="currentColor" d="M4.16667 0C3.70643 0 3.33333 0.3731 3.33333 0.833333V3.33333H0.833333C0.3731 3.33333 0 3.70643 0 4.16667V14.1667C0 14.6269 0.3731 15 0.833333 15H12.5C12.9602 15 13.3333 14.6269 13.3333 14.1667V11.6667H15.8333C16.2936 11.6667 16.6667 11.2936 16.6667 10.8333V0.833333C16.6667 0.3731 16.2936 0 15.8333 0H4.16667ZM12.5 3.33333H5V1.66667H15V10H13.3333V4.16667C13.3333 3.70643 12.9602 3.33333 12.5 3.33333ZM11.6667 5V10.6162L7.90925 7.20033L1.66667 13.0267V5H11.6667ZM7.92408 9.46633L11.6667 12.8687V13.3333H3.78085L7.92408 9.46633ZM4.16667 8.75C4.85702 8.75 5.41667 8.19033 5.41667 7.5C5.41667 6.80967 4.85702 6.25 4.16667 6.25C3.47631 6.25 2.91667 6.80967 2.91667 7.5C2.91667 8.19033 3.47631 8.75 4.16667 8.75Z"/>
</svg>
