<?xml version="1.0" standalone="no"?><!DOCTYPE svg PUBLIC "-//W3C//DTD SVG 1.1//EN" "http://www.w3.org/Graphics/SVG/1.1/DTD/svg11.dtd"><svg t="1762011870928" class="icon" viewBox="0 0 1024 1024" version="1.1" xmlns="http://www.w3.org/2000/svg" p-id="1462" xmlns:xlink="http://www.w3.org/1999/xlink" width="128" height="128" fill="currentColor"><path d="M849.5 216.6875H174.5v590.625l392.00625-392.090625a42.1875 42.1875 0 0 1 59.6953125 0L849.5 638.984375V216.6875zM90.125 174.2046875A42.1875 42.1875 0 0 1 131.975 132.3125h760.05c23.11875 0 41.85 18.7734375 41.85 41.8921875v675.590625a42.1875 42.1875 0 0 1-41.85 41.8921875H131.975A41.8921875 41.8921875 0 0 1 90.125 849.7953125V174.2046875zM343.25 469.8125a84.375 84.375 0 1 1 0-168.75 84.375 84.375 0 0 1 0 168.75z" p-id="1463"></path></svg>
