<svg width="11" height="13" viewBox="0 0 11 13" fill="none" xmlns="http://www.w3.org/2000/svg">
<path d="M4.45722 7.24298V8.35728C2.61098 8.35728 1.1143 9.85396 1.1143 11.7002H0C0 9.23853 1.99556 7.24298 4.45722 7.24298ZM4.45722 6.68582C2.61026 6.68582 1.1143 5.18987 1.1143 3.34291C1.1143 1.49595 2.61026 0 4.45722 0C6.30418 0 7.80013 1.49595 7.80013 3.34291C7.80013 5.18987 6.30418 6.68582 4.45722 6.68582ZM4.45722 5.57152C5.68852 5.57152 6.68582 4.57422 6.68582 3.34291C6.68582 2.11161 5.68852 1.1143 4.45722 1.1143C3.22591 1.1143 2.22861 2.11161 2.22861 3.34291C2.22861 4.57422 3.22591 5.57152 4.45722 5.57152ZM7.80013 11.4216L6.16271 12.2825L6.47544 10.4591L5.1507 9.16788L6.98139 8.9019L7.80013 7.24298L8.61886 8.9019L10.4496 9.16788L9.12481 10.4591L9.43754 12.2825L7.80013 11.4216Z" fill="currentColor"/>
</svg>
