<svg xmlns="http://www.w3.org/2000/svg" viewBox="0 0 1024 1024">
  <rect width="1024" height="1024" fill="#fff"/>
  <circle cx="512" cy="512" r="225" fill="#c60e2e"/>
  <path d="M512 512a225 225 0 0 0 450 0a112.5 112.5 0 0 1 -225 0a112.5 112.5 0 0 0 -225 0" fill="#0047a0" transform="rotate(-34 512 512)"/>
  <g transform="translate(512 512) rotate(-34)">
    <g transform="translate(-360 0)">
      <rect x="-30" y="-180" width="60" height="100" fill="#000"/>
      <rect x="-30" y="-60" width="60" height="100" fill="#000"/>
      <rect x="-30" y="80" width="60" height="100" fill="#000"/>
    </g>
    <g transform="translate(360 0) rotate(180)">
      <rect x="-30" y="-180" width="60" height="40" fill="#000"/>
      <rect x="-30" y="-120" width="60" height="40" fill="#000"/>
      <rect x="-30" y="-60" width="60" height="100" fill="#000"/>
      <rect x="-30" y="80" width="60" height="40" fill="#000"/>
      <rect x="-30" y="140" width="60" height="40" fill="#000"/>
    </g>
    <g transform="rotate(68)">
      <g transform="translate(-360 0)">
        <rect x="-30" y="-180" width="60" height="100" fill="#000"/>
        <rect x="-30" y="-60" width="60" height="40" fill="#000"/>
        <rect x="-30" y="20" width="60" height="40" fill="#000"/>
        <rect x="-30" y="80" width="60" height="100" fill="#000"/>
      </g>
      <g transform="translate(360 0) rotate(180)">
        <rect x="-30" y="-180" width="60" height="40" fill="#000"/>
        <rect x="-30" y="-120" width="60" height="40" fill="#000"/>
        <rect x="-30" y="-60" width="60" height="40" fill="#000"/>
        <rect x="-30" y="20" width="60" height="40" fill="#000"/>
        <rect x="-30" y="80" width="60" height="40" fill="#000"/>
        <rect x="-30" y="140" width="60" height="40" fill="#000"/>
      </g>
    </g>
  </g>
</svg>
