<svg width="10" height="10" viewBox="0 0 10 10" fill="none" xmlns="http://www.w3.org/2000/svg">
<path d="M4.16634 2.91671C4.16634 4.52754 5.47217 5.83337 7.08301 5.83337C7.89901 5.83337 8.63676 5.49825 9.16613 4.95817C9.16634 4.97212 9.16634 4.98608 9.16634 5.00004C9.16634 7.30121 7.30084 9.16671 4.99967 9.16671C2.69849 9.16671 0.833008 7.30121 0.833008 5.00004C0.833008 2.69885 2.69849 0.833374 4.99967 0.833374C5.01363 0.833374 5.02759 0.833374 5.04155 0.833578C4.50147 1.36295 4.16634 2.10069 4.16634 2.91671ZM1.66634 5.00004C1.66634 6.841 3.15872 8.33337 4.99967 8.33337C6.27397 8.33337 7.38126 7.61833 7.94217 6.56758C7.66405 6.63283 7.37613 6.66671 7.08301 6.66671C5.01192 6.66671 3.33301 4.98779 3.33301 2.91671C3.33301 2.62357 3.3669 2.33565 3.43213 2.05754C2.38139 2.61847 1.66634 3.72575 1.66634 5.00004Z" fill="currentColor"/>
</svg>
