<svg width="20" height="20" viewBox="0 0 20 20" fill="none" xmlns="http://www.w3.org/2000/svg">
<path d="M12.7179 13.0019L10.5052 17.6521C10.3628 17.9513 10.0048 18.0784 9.70564 17.936C9.63894 17.9043 9.57864 17.8605 9.52784 17.8069L5.98643 14.0681C5.89163 13.968 5.76527 13.9036 5.62859 13.8858L0.522299 13.2183C0.193719 13.1754 -0.0378213 12.8742 0.00512872 12.5456C0.0146987 12.4724 0.0377289 12.4015 0.0730389 12.3366L2.53445 7.81322C2.60034 7.69212 2.62253 7.55202 2.59728 7.41655L1.65414 2.35393C1.59345 2.02816 1.80834 1.71488 2.13411 1.65419C2.20674 1.64066 2.28125 1.64066 2.35388 1.65419L7.41651 2.59733C7.55204 2.62257 7.69214 2.60039 7.81314 2.5345L12.3365 0.0730896C12.6276 -0.0853004 12.992 0.0222695 13.1503 0.313329C13.1857 0.378229 13.2087 0.44909 13.2182 0.52235L13.8857 5.62864C13.9036 5.76532 13.968 5.89168 14.068 5.98647L17.8068 9.52782C18.0474 9.75572 18.0577 10.1355 17.8298 10.3761C17.779 10.4297 17.7187 10.4735 17.652 10.5052L13.0019 12.718C12.8774 12.7772 12.7771 12.8775 12.7179 13.0019ZM13.5147 14.929L14.9289 13.5148L19.1716 17.7574L17.7574 19.1716L13.5147 14.929Z" fill="currentColor"/>
</svg>
