<svg width="13" height="13" viewBox="0 0 13 13" fill="none" xmlns="http://www.w3.org/2000/svg">
<path d="M8.46183 4.95899C8.17269 4.68515 7.98669 4.3201 7.93509 3.92524L7.66649 1.87027L5.84609 2.86084C5.49629 3.05117 5.09163 3.11527 4.70015 3.04233L2.66275 2.66278L3.0423 4.70018C3.11523 5.09168 3.05114 5.49635 2.86081 5.84608L1.87023 7.66648L3.92521 7.93508C4.32007 7.98675 4.68511 8.17275 4.95897 8.46181L6.38416 9.96648L7.27463 8.09508C7.44576 7.73548 7.73543 7.44581 8.09503 7.27468L9.96643 6.38421L8.46183 4.95899ZM8.47863 8.66795L7.00349 11.7681C6.90856 11.9675 6.66989 12.0523 6.47043 11.9573C6.42596 11.9362 6.38576 11.907 6.35189 11.8713L3.99095 9.37875C3.92775 9.31201 3.84351 9.26908 3.75239 9.25721L0.348199 8.81221C0.129146 8.78361 -0.0252142 8.58281 0.00341915 8.36375C0.00979915 8.31495 0.0251526 8.26768 0.0486926 8.22441L1.68963 5.20881C1.73356 5.12808 1.74835 5.03468 1.73152 4.94437L1.10276 1.56929C1.0623 1.35211 1.20556 1.14325 1.42274 1.10279C1.47116 1.09377 1.52083 1.09377 1.56925 1.10279L4.94434 1.73155C5.03469 1.74838 5.12809 1.73359 5.20876 1.68967L8.22436 0.0487264C8.41843 -0.0568669 8.66136 0.0148463 8.76689 0.208886C8.79049 0.252153 8.80583 0.299393 8.81216 0.348233L9.25716 3.75243C9.26909 3.84355 9.31203 3.92779 9.37869 3.99098L11.8712 6.35188C12.0316 6.50381 12.0385 6.75701 11.8866 6.91741C11.8527 6.95315 11.8125 6.98235 11.768 7.00348L8.66796 8.47868C8.58496 8.51815 8.51809 8.58501 8.47863 8.66795ZM9.00983 9.95268L9.95263 9.00988L12.7811 11.8383L11.8383 12.7811L9.00983 9.95268Z" fill="currentColor"/>
</svg>
