<?xml version="1.0" standalone="no"?><!DOCTYPE svg PUBLIC "-//W3C//DTD SVG 1.1//EN" "http://www.w3.org/Graphics/SVG/1.1/DTD/svg11.dtd"><svg t="1761577296923" class="icon" viewBox="0 0 1024 1024" version="1.1" xmlns="http://www.w3.org/2000/svg" p-id="1057" xmlns:xlink="http://www.w3.org/1999/xlink" width="128" height="128" fill="currentColor"><path d="M729.33763634 160.99015414a114.28887942 114.28887942 0 0 1 161.65183848 161.6518385l-612.88698635 612.8869863a114.28887942 114.28887942 0 1 1-161.65183846-161.65183845l612.88698633-612.88698635z m113.51665728 48.13518123a46.24752705 46.24752705 0 0 0-65.38147608 0l-123.46974285 123.46974285 65.38147605 65.38147608 123.46974288-123.55554534a46.16172457 46.16172457 0 0 0 0-65.29567359z" p-id="1058"></path><path d="M406.29136677 97.58213471a22.73765244 22.73765244 0 0 0 10.12469053-10.12469053l21.70802287-43.41604577a22.73765244 22.73765244 0 0 1 40.58456456 0l21.7080229 43.41604577a22.73765244 22.73765244 0 0 0 10.12469051 10.12469053l43.50184825 21.70802288a22.73765244 22.73765244 0 0 1 0 40.58456454l-43.50184825 21.70802293a22.73765244 22.73765244 0 0 0-10.12469051 10.21049297l-21.7080229 43.41604578a22.73765244 22.73765244 0 0 1-40.58456456 0l-21.70802287-43.41604578a22.73765244 22.73765244 0 0 0-10.12469053-10.21049297l-43.50184825-21.70802293a22.73765244 22.73765244 0 0 1 0-40.58456454l43.50184825-21.70802288zM814.71108607 597.03826623a22.73765244 22.73765244 0 0 0 10.21049298-10.21049298l21.7080229-43.41604582a22.65184997 22.65184997 0 0 1 40.58456455 0l21.70802287 43.41604582a22.65184997 22.65184997 0 0 0 10.12469052 10.21049298l43.41604581 21.70802289a22.73765244 22.73765244 0 0 1 0 40.58456454l-43.41604581 21.70802288a22.65184997 22.65184997 0 0 0-10.12469052 10.12469053l-21.70802287 43.41604579a22.73765244 22.73765244 0 0 1-40.58456455 0l-21.7080229-43.41604579a22.65184997 22.65184997 0 0 0-10.21049298-10.12469053l-43.4160458-21.70802288a22.73765244 22.73765244 0 0 1 0-40.58456454l43.4160458-21.70802289zM179.17224975 324.61544925a22.73765244 22.73765244 0 0 0 10.12469052-10.12469052l21.70802292-43.4160458a22.73765244 22.73765244 0 0 1 40.670367 0l21.70802288 43.4160458a22.73765244 22.73765244 0 0 0 10.12469051 10.12469052l43.4160458 21.70802291a22.73765244 22.73765244 0 0 1 0 40.58456452l-43.4160458 21.70802292a22.73765244 22.73765244 0 0 0-10.12469051 10.21049296l-21.70802288 43.4160458a22.73765244 22.73765244 0 0 1-40.670367 0L189.38274276 418.74075011a22.73765244 22.73765244 0 0 0-10.12469055-10.21049298l-43.41604578-21.7080229a22.73765244 22.73765244 0 0 1 0-40.58456453l43.41604578-21.70802289z" p-id="1059"></path></svg>
