<svg width="17" height="17" viewBox="0 0 17 17" fill="none" xmlns="http://www.w3.org/2000/svg">
<path d="M5.83333 1.66667C6.75383 1.66667 7.5 2.41286 7.5 3.33333V9.02258C6.75483 8.44775 5.80502 8.10875 4.72033 7.928L4.44633 9.572C5.59685 9.76375 6.33119 10.1273 6.7835 10.6173C7.225 11.0956 7.5 11.8058 7.5 12.9167C7.5 14.0672 6.56726 15 5.41667 15C4.26607 15 3.33333 14.0672 3.33333 12.9167V12.6244C3.69173 12.7438 4.06362 12.8416 4.44633 12.9053L4.72033 11.2613C4.10124 11.1582 3.47933 10.9287 2.85757 10.6333C2.15131 10.2977 1.66667 9.5825 1.66667 8.75C1.66667 8.05442 1.83968 7.50708 2.13228 7.10475C2.42034 6.70867 2.86825 6.39192 3.53545 6.22512L4.16667 6.06732V3.33333C4.16667 2.41286 4.91286 1.66667 5.83333 1.66667ZM8.33333 1.12848C7.72258 0.436467 6.82892 0 5.83333 0C3.99238 0 2.5 1.49238 2.5 3.33333V4.81185C1.79079 5.09703 1.20952 5.53988 0.784383 6.12444C0.243658 6.86792 0 7.77892 0 8.75C0 10.0543 0.663042 11.1973 1.66667 11.8685V12.9167C1.66667 14.9878 3.3456 16.6667 5.41667 16.6667C6.59469 16.6667 7.64583 16.1235 8.33333 15.2739C9.02083 16.1235 10.072 16.6667 11.25 16.6667C13.3211 16.6667 15 14.9878 15 12.9167V11.8685C16.0037 11.1973 16.6667 10.0543 16.6667 8.75C16.6667 7.77892 16.423 6.86792 15.8822 6.12444C15.4572 5.53988 14.8759 5.09703 14.1667 4.81185V3.33333C14.1667 1.49238 12.6742 0 10.8333 0C9.83775 0 8.94408 0.436467 8.33333 1.12848ZM13.3333 12.6244V12.9167C13.3333 14.0672 12.4006 15 11.25 15C10.0994 15 9.16667 14.0672 9.16667 12.9167C9.16667 11.8058 9.44167 11.0956 9.88317 10.6173C10.3355 10.1273 11.0698 9.76375 12.2203 9.572L11.9463 7.928C10.8617 8.10875 9.91183 8.44775 9.16667 9.02258V3.33333C9.16667 2.41286 9.91283 1.66667 10.8333 1.66667C11.7538 1.66667 12.5 2.41286 12.5 3.33333V6.06732L13.1312 6.22512C13.7984 6.39192 14.2463 6.70867 14.5344 7.10475C14.827 7.50708 15 8.05442 15 8.75C15 9.5825 14.5153 10.2977 13.8091 10.6333C13.1873 10.9287 12.5654 11.1582 11.9463 11.2613L12.2203 12.9053C12.6031 12.8416 12.9749 12.7438 13.3333 12.6244Z" fill="currentColor"/>
</svg>
