<svg width="22" height="20" viewBox="0 0 22 20" fill="none" xmlns="http://www.w3.org/2000/svg">
<path d="M4.7134 7.12811L4.46682 7.69379C4.28637 8.10792 3.71357 8.10792 3.53312 7.69379L3.28656 7.12811C2.84706 6.11947 2.05545 5.31641 1.06767 4.87708L0.308048 4.53922C-0.102683 4.35653 -0.102683 3.75881 0.308048 3.57612L1.0252 3.25714C2.03838 2.80651 2.84417 1.97373 3.27612 0.93083L3.52932 0.31953C3.70578 -0.10651 4.29417 -0.10651 4.47063 0.31953L4.72382 0.93083C5.15577 1.97373 5.96158 2.80651 6.9748 3.25714L7.69188 3.57612C8.10271 3.75881 8.10271 4.35653 7.69188 4.53922L6.93228 4.87708C5.94451 5.31641 5.15288 6.11947 4.7134 7.12811ZM9.7381 10.7698L14.5 19.5H21.5L13.5 4.5L9.7381 10.7698ZM12.5 19.5L6.5 8.5L0.499997 19.5H12.5Z" fill="url(#paint0_linear_5706_23845)"/>
<defs>
<linearGradient id="paint0_linear_5706_23845" x1="10.75" y1="0" x2="10.75" y2="19.5" gradientUnits="userSpaceOnUse">
<stop stop-color="#F8EB71"/>
<stop offset="1" stop-color="#D743A9"/>
</linearGradient>
</defs>
</svg>
