<svg width="27" height="27" viewBox="0 0 27 27" fill="none" xmlns="http://www.w3.org/2000/svg">
<path d="M10.6667 23.664V19.2C10.6667 17.4899 11.9931 16.1435 13.9556 15.3761C12.7241 14.9173 11.3913 14.6667 10 14.6667C7.48017 14.6667 5.15243 15.4891 3.27048 16.88C4.44265 20.2059 7.21697 22.776 10.6667 23.664ZM22.5059 18.7812C21.9816 18.0701 20.2277 17.3333 18 17.3333C15.3252 17.3333 13.3333 18.3956 13.3333 19.2V24C17.234 24 20.6457 21.9061 22.5059 18.7812ZM10.0667 12.6667C11.7235 12.6667 13.0667 11.3235 13.0667 9.66667C13.0667 8.00981 11.7235 6.66667 10.0667 6.66667C8.40981 6.66667 7.06667 8.00981 7.06667 9.66667C7.06667 11.3235 8.40981 12.6667 10.0667 12.6667ZM18 14C19.4728 14 20.6667 12.8061 20.6667 11.3333C20.6667 9.86057 19.4728 8.66667 18 8.66667C16.5272 8.66667 15.3333 9.86057 15.3333 11.3333C15.3333 12.8061 16.5272 14 18 14ZM13.3333 26.6667C5.96953 26.6667 0 20.6971 0 13.3333C0 5.96953 5.96953 0 13.3333 0C20.6971 0 26.6667 5.96953 26.6667 13.3333C26.6667 20.6971 20.6971 26.6667 13.3333 26.6667Z" fill="currentColor"/>
</svg>
