<svg width="14" height="13" viewBox="0 0 14 13" fill="none" xmlns="http://www.w3.org/2000/svg">
<path d="M2.9697 10.6667L0 13V0.666667C0 0.29848 0.29848 0 0.666667 0H12.6667C13.0349 0 13.3333 0.29848 13.3333 0.666667V10C13.3333 10.3682 13.0349 10.6667 12.6667 10.6667H2.9697ZM1.33333 10.2567L2.50855 9.33333H12V1.33333H1.33333V10.2567ZM6.67853 7.7998L4.43934 5.56067C3.85355 4.97487 3.85355 4.02513 4.43934 3.43934C5.02513 2.85355 5.97487 2.85355 6.56067 3.43934L6.67853 3.55719L6.79633 3.43934C7.38213 2.85355 8.33187 2.85355 8.91767 3.43934C9.50347 4.02513 9.50347 4.97487 8.91767 5.56067L6.67853 7.7998Z" fill="currentColor"/>
</svg>
