<svg width="15" height="13" viewBox="0 0 15 13" fill="none" xmlns="http://www.w3.org/2000/svg">
<path d="M12.1617 1.17157C13.1367 2.14853 13.5031 3.50003 13.2616 4.75787C13.6409 4.8648 13.9991 5.0668 14.2981 5.36353C15.234 6.29267 15.234 7.79913 14.2981 8.72827L10.6667 12.3333L8.652 10.3333L6.6666 12.3233L1.01425 6.662C-0.388634 5.09133 -0.336196 2.67934 1.17157 1.17157C2.68105 -0.3379 5.0968 -0.388753 6.66734 1.01902C8.23333 -0.386666 10.6533 -0.34 12.1617 1.17157ZM7.97467 6.30973C7.564 6.7174 7.564 7.37433 7.97467 7.782L10.6667 10.4545L13.3587 7.782C13.7693 7.37433 13.7693 6.7174 13.3587 6.30973C12.9427 5.89673 12.2641 5.89673 11.8467 6.3112L10.6653 7.4804L9.72733 6.55L9.4852 6.30973C9.0692 5.89673 8.39067 5.89673 7.97467 6.30973ZM2.11438 2.11438C1.12122 3.10754 1.07136 4.6982 1.98662 5.7488L6.6666 10.4362L7.706 9.39467L7.03527 8.72827C6.09933 7.79913 6.09933 6.29267 7.03527 5.36353C7.9712 4.43438 9.48867 4.43438 10.4246 5.36353L10.6664 5.6034L10.9087 5.36353C11.1918 5.08253 11.5281 4.88647 11.8853 4.77547C12.1624 3.86385 11.9372 2.83415 11.218 2.1134C10.2186 1.11196 8.60507 1.07134 7.558 2.01125L6.66793 2.81016L5.77737 2.01187C4.72732 1.07065 3.11671 1.11205 2.11438 2.11438Z" fill="currentColor"/>
</svg>
