<svg width="30" height="28" viewBox="0 0 30 28" fill="none" xmlns="http://www.w3.org/2000/svg">
<path d="M24.6224 10.2584L24.9512 9.50415C25.5372 8.1593 26.5927 7.08855 27.9097 6.50277L28.9225 6.05229C29.4703 5.80871 29.4703 5.01175 28.9225 4.76816L27.9664 4.34285C26.6155 3.74201 25.5411 2.63164 24.9651 1.24111L24.6275 0.426041C24.3923 -0.142014 23.6077 -0.142014 23.3724 0.426041L23.0348 1.24111C22.4589 2.63164 21.3845 3.74201 20.0336 4.34285L19.0773 4.76816C18.5297 5.01175 18.5297 5.80871 19.0773 6.05229L20.0903 6.50277C21.4073 7.08855 22.4628 8.1593 23.0488 9.50415L23.3775 10.2584C23.6181 10.8106 24.3819 10.8106 24.6224 10.2584ZM13.3333 1.33333C5.96953 1.33333 0 7.30287 0 14.6667C0 22.0304 5.96953 28 13.3333 28C20.6971 28 26.6667 22.0304 26.6667 14.6667C26.6667 14.13 26.6349 13.6003 26.5731 13.0792L23.9249 13.3936C23.9745 13.8105 24 14.2353 24 14.6667C24 15.8683 23.8013 17.0235 23.4349 18.1012L18.2764 12.9427C17.7557 12.4219 16.9115 12.4219 16.3908 12.9427L6.48688 22.8465C4.15163 20.8899 2.66667 17.9516 2.66667 14.6667C2.66667 8.77563 7.44229 4 13.3333 4C14.2559 4 15.1491 4.1168 16 4.33572L16.6644 1.75316C15.5983 1.47885 14.4819 1.33333 13.3333 1.33333ZM9.33333 14.6667C10.8061 14.6667 12 13.4728 12 12C12 10.5272 10.8061 9.33333 9.33333 9.33333C7.86057 9.33333 6.66667 10.5272 6.66667 12C6.66667 13.4728 7.86057 14.6667 9.33333 14.6667Z" fill="currentColor"/>
</svg>
