<svg width="14" height="12" viewBox="0 0 14 12" fill="none" xmlns="http://www.w3.org/2000/svg">
<path d="M0 0.662267C0 0.296507 0.30354 0 0.6612 0H12.6721C13.0373 0 13.3333 0.296633 13.3333 0.662267V11.3377C13.3333 11.7035 13.0298 12 12.6721 12H0.6612C0.296033 12 0 11.7034 0 11.3377V0.662267ZM4 1.33333V10.6667H9.33333V1.33333H4ZM1.33333 1.33333V2.66667H2.66667V1.33333H1.33333ZM10.6667 1.33333V2.66667H12V1.33333H10.6667ZM1.33333 4V5.33333H2.66667V4H1.33333ZM10.6667 4V5.33333H12V4H10.6667ZM1.33333 6.66667V8H2.66667V6.66667H1.33333ZM10.6667 6.66667V8H12V6.66667H10.6667ZM1.33333 9.33333V10.6667H2.66667V9.33333H1.33333ZM10.6667 9.33333V10.6667H12V9.33333H10.6667Z" fill="currentColor"/>
</svg>
