<svg width="17" height="15" viewBox="0 0 17 15" fill="none" xmlns="http://www.w3.org/2000/svg">
<path d="M0 0.827833C0 0.370633 0.379425 0 0.8265 0H15.8402C16.2967 0 16.6667 0.370792 16.6667 0.827833V14.1722C16.6667 14.6293 16.2872 15 15.8402 15H0.8265C0.370042 15 0 14.6292 0 14.1722V0.827833ZM1.66667 1.66667V13.3333H15V1.66667H1.66667ZM7.18492 4.51216L11.2507 7.22267C11.4038 7.32475 11.4452 7.53175 11.3431 7.68492C11.3187 7.7215 11.2872 7.75292 11.2507 7.77733L7.18492 10.4878C7.03175 10.59 6.82475 10.5486 6.72267 10.3954C6.68617 10.3407 6.66667 10.2763 6.66667 10.2105V4.78951C6.66667 4.60541 6.81592 4.45617 7 4.45617C7.06583 4.45617 7.13017 4.47565 7.18492 4.51216Z" fill="currentColor"/>
</svg>
