<svg width="19" height="23" viewBox="0 0 19 23" fill="none" xmlns="http://www.w3.org/2000/svg">
<path d="M8 13V15C4.68629 15 2 17.6863 2 21H0C0 16.5817 3.58172 13 8 13ZM8 12C4.685 12 2 9.315 2 6C2 2.685 4.685 0 8 0C11.315 0 14 2.685 14 6C14 9.315 11.315 12 8 12ZM8 10C10.21 10 12 8.21 12 6C12 3.79 10.21 2 8 2C5.79 2 4 3.79 4 6C4 8.21 5.79 10 8 10ZM14 20.5L11.0611 22.0451L11.6224 18.7725L9.2447 16.4549L12.5305 15.9775L14 13L15.4695 15.9775L18.7553 16.4549L16.3776 18.7725L16.9389 22.0451L14 20.5Z"  fill="currentColor"/>
</svg>
