<svg width="16" height="16" viewBox="0 0 16 16" fill="none" xmlns="http://www.w3.org/2000/svg">
<path d="M3.75 15.8333C1.67893 15.8333 0 14.1544 0 12.0833C0 10.0122 1.67893 8.33333 3.75 8.33333C5.82107 8.33333 7.5 10.0122 7.5 12.0833C7.5 14.1544 5.82107 15.8333 3.75 15.8333ZM12.0833 7.5C10.0122 7.5 8.33333 5.82107 8.33333 3.75C8.33333 1.67893 10.0122 0 12.0833 0C14.1544 0 15.8333 1.67893 15.8333 3.75C15.8333 5.82107 14.1544 7.5 12.0833 7.5ZM3.75 14.1667C4.90059 14.1667 5.83333 13.2339 5.83333 12.0833C5.83333 10.9327 4.90059 10 3.75 10C2.59941 10 1.66667 10.9327 1.66667 12.0833C1.66667 13.2339 2.59941 14.1667 3.75 14.1667ZM12.0833 5.83333C13.2339 5.83333 14.1667 4.90059 14.1667 3.75C14.1667 2.59941 13.2339 1.66667 12.0833 1.66667C10.9327 1.66667 10 2.59941 10 3.75C10 4.90059 10.9327 5.83333 12.0833 5.83333ZM0.416667 4.58333C0.416667 2.28215 2.28215 0.416667 4.58333 0.416667H7.08333V2.08333H4.58333C3.20263 2.08333 2.08333 3.20263 2.08333 4.58333V7.08333H0.416667V4.58333ZM15.4167 8.75H13.75V11.25C13.75 12.6307 12.6307 13.75 11.25 13.75H8.75V15.4167H11.25C13.5512 15.4167 15.4167 13.5512 15.4167 11.25V8.75Z" fill="currentColor"/>
</svg>
