<svg width="17" height="17" viewBox="0 0 17 17" fill="none" xmlns="http://www.w3.org/2000/svg">
<path d="M13.4522 8.41395L5.20183 16.6635H1.66668V13.1283L9.91617 4.87875L13.4522 8.41395ZM12.863 1.93197C13.1884 1.60695 13.716 1.60672 14.0413 1.93197L16.3981 4.28956C16.7234 4.61501 16.7235 5.14255 16.3981 5.46795L14.6306 7.23553L11.0946 3.70037L12.863 1.93197ZM2.94108 0.266121C3.08819 -0.0887082 3.57848 -0.0887057 3.72559 0.266121L3.93637 0.775563C4.29629 1.64455 4.96796 2.33848 5.81218 2.71404L6.41033 2.98015C6.75223 3.1325 6.75218 3.63017 6.41033 3.78256L5.77719 4.06414C4.95414 4.4302 4.29449 5.09956 3.92823 5.93995L3.72233 6.41115C3.57197 6.75626 3.09472 6.75626 2.94434 6.41115L2.73845 5.93995C2.37218 5.09956 1.71255 4.4302 0.889492 4.06414L0.256351 3.78256C-0.0854302 3.63018 -0.0854702 3.1325 0.256351 2.98015L0.854501 2.71404C1.69871 2.33849 2.37038 1.64457 2.73031 0.775563L2.94108 0.266121Z"  fill="currentColor"/>
</svg>
