<svg width="29" height="26" viewBox="0 0 29 26" fill="none" xmlns="http://www.w3.org/2000/svg">
<path d="M24.3426 10.0019L24.6677 9.26654C25.247 7.95531 26.2905 6.91133 27.5926 6.34021L28.5939 5.90099C29.1354 5.66349 29.1354 4.88645 28.5939 4.64896L27.6486 4.23428C26.313 3.64846 25.2508 2.56585 24.6814 1.21008L24.3476 0.41539C24.1151 -0.138463 23.3395 -0.138463 23.1068 0.41539L22.773 1.21008C22.2037 2.56585 21.1415 3.64846 19.8059 4.23428L18.8605 4.64896C18.3192 4.88645 18.3192 5.66349 18.8605 5.90099L19.862 6.34021C21.1641 6.91133 22.2075 7.95531 22.7869 9.26654L23.1118 10.0019C23.3497 10.5403 24.1048 10.5403 24.3426 10.0019ZM23.7273 13C24.6517 13 25.539 12.8436 26.3636 12.5562V24.7086C26.3636 25.4218 25.7635 26 25.0563 26H1.30737C0.585339 26 0 25.4216 0 24.7086V3.89142C0 3.17819 0.600181 2.6 1.30737 2.6H16.2682C15.9768 3.41323 15.8182 4.28835 15.8182 5.2C15.8182 9.50782 19.3592 13 23.7273 13ZM2.63636 5.2V7.8H5.27273V5.2H2.63636ZM2.63636 10.4V13H5.27273V10.4H2.63636ZM2.63636 15.6V18.2H5.27273V15.6H2.63636ZM21.0909 15.6V18.2H23.7273V15.6H21.0909ZM2.63636 20.8V23.4H5.27273V20.8H2.63636ZM21.0909 20.8V23.4H23.7273V20.8H21.0909Z" fill="currentColor"/>
</svg>
