<svg width="15" height="15" viewBox="0 0 15 15" fill="none" xmlns="http://www.w3.org/2000/svg">
<path d="M7.18902 0.216515C7.29584 -0.0721715 7.70416 -0.0721715 7.81098 0.216515L9.58836 5.01982C9.65553 5.20135 9.79865 5.34447 9.98018 5.41164L14.7835 7.18902C15.0722 7.29584 15.0722 7.70416 14.7835 7.81098L9.98018 9.58836C9.79865 9.65553 9.65553 9.79865 9.58836 9.98018L7.81098 14.7835C7.70416 15.0722 7.29584 15.0722 7.18902 14.7835L5.41164 9.98018C5.34447 9.79865 5.20135 9.65553 5.01982 9.58836L0.216515 7.81098C-0.0721715 7.70416 -0.0721715 7.29584 0.216515 7.18902L5.01982 5.41164C5.20135 5.34447 5.34447 5.20135 5.41164 5.01982L7.18902 0.216515Z" fill="url(#paint0_linear_3157_26990)"/>
<defs>
<linearGradient id="paint0_linear_3157_26990" x1="2.91667" y1="-0.416667" x2="7.5" y2="15" gradientUnits="userSpaceOnUse">
<stop offset="0.0432692" stop-color="#FFFEFF"/>
<stop offset="0.25" stop-color="#DBC9D7"/>
<stop offset="0.442308" stop-color="#F9D9FF"/>
<stop offset="0.711538" stop-color="#CFABCF"/>
<stop offset="1" stop-color="white"/>
</linearGradient>
</defs>
</svg>
