<svg width="22" height="21" viewBox="0 0 22 21" fill="none" xmlns="http://www.w3.org/2000/svg">
<path d="M18.4668 7.69379L18.7134 7.12811C19.1529 6.11947 19.9445 5.31641 20.9323 4.87708L21.6919 4.53922C22.1027 4.35653 22.1027 3.75881 21.6919 3.57612L20.9748 3.25714C19.9616 2.80651 19.1558 1.97373 18.7238 0.930831L18.4706 0.319531C18.2942 -0.10651 17.7058 -0.10651 17.5293 0.319531L17.2761 0.930831C16.8442 1.97373 16.0384 2.80651 15.0252 3.25714L14.308 3.57612C13.8973 3.75881 13.8973 4.35653 14.308 4.53922L15.0677 4.87708C16.0555 5.31641 16.8471 6.11947 17.2866 7.12811L17.5331 7.69379C17.7136 8.10792 18.2864 8.10792 18.4668 7.69379ZM12.3094 13L7.82726 20.7633C8.5268 20.9183 9.2538 21 10 21C12.1805 21 14.198 20.3021 15.8413 19.1175L12.3094 13ZM0.4578 14C1.31516 16.7297 3.3115 18.955 5.88985 20.119L9.4226 14H0.4578ZM0 11C0 11.3375 0.0167201 11.6711 0.0493801 12H7.11325L2.6322 4.23859C0.99773 6.0187 0 8.39284 0 11ZM10 1C7.81949 1 5.80198 1.6979 4.15866 2.88251L7.6906 9L12.1727 1.2367C11.4732 1.08172 10.7462 1 10 1ZM20 11C20 10.6625 19.9833 10.3289 19.9506 10H12.8868L17.3678 17.7614C19.0023 15.9813 20 13.6072 20 11Z" fill="url(#paint0_linear_5587_468)"/>
<defs>
<linearGradient id="paint0_linear_5587_468" x1="-0.10226" y1="0.842569" x2="24.0901" y2="3.77873" gradientUnits="userSpaceOnUse">
<stop stop-color="#DD429D"/>
<stop offset="0.5" stop-color="#B14BF4"/>
<stop offset="1" stop-color="#485CFB"/>
</linearGradient>
</defs>
</svg>
