<svg width="15" height="14" viewBox="0 0 15 14" fill="none" xmlns="http://www.w3.org/2000/svg">
<path d="M9.06653 4.90712H13.3333C14.0697 4.90712 14.6667 5.50408 14.6667 6.24043V7.64337C14.6667 7.8175 14.6325 7.98997 14.5663 8.15104L12.5033 13.161C12.4005 13.4108 12.157 13.5738 11.8869 13.5738H0.666667C0.29848 13.5738 0 13.2753 0 12.9071V6.24043C0 5.87226 0.29848 5.57379 0.666667 5.57379H2.98789C3.20451 5.57379 3.40762 5.46854 3.53254 5.29157L7.16813 0.141138C7.26313 0.00655841 7.4422 -0.0384469 7.58953 0.0352231L8.79893 0.639908C9.5 0.990461 9.86207 1.78218 9.66873 2.5418L9.06653 4.90712ZM4 6.6321V12.2404H11.4404L13.3333 7.64337V6.24043H9.06653C8.19673 6.24043 7.55987 5.42109 7.7744 4.57817L8.3766 2.21286C8.41527 2.06093 8.34287 1.90259 8.2026 1.83248L7.76187 1.6121L4.62183 6.06049C4.45523 6.2965 4.24227 6.48997 4 6.6321ZM2.66667 6.9071H1.33333V12.2404H2.66667V6.9071Z" fill="currentColor"/>
</svg>
