<svg width="14" height="14" viewBox="0 0 14 14" fill="none" xmlns="http://www.w3.org/2000/svg">
<path d="M13.3333 6.66667C13.3333 10.3485 10.3486 13.3333 6.66667 13.3333C2.9848 13.3333 0 10.3485 0 6.66667C0 2.98477 2.9848 0 6.66667 0V1.33333C3.72113 1.33333 1.33333 3.72115 1.33333 6.66667C1.33333 9.6122 3.72113 12 6.66667 12C9.6122 12 12 9.6122 12 6.66667C12 4.83348 11.0751 3.21631 9.66653 2.25634L9.66667 4H8.33333V0H12.3333V1.33333L10.6672 1.33326C12.2862 2.54956 13.3333 4.48582 13.3333 6.66667Z" fill="url(#paint0_linear_2690_12451)"/>
<defs>
<linearGradient id="paint0_linear_2690_12451" x1="-0.0619759" y1="0.534964" x2="14.619" y2="2.23576" gradientUnits="userSpaceOnUse">
<stop stop-color="#DD429D"/>
<stop offset="0.5" stop-color="#B14BF4"/>
<stop offset="1" stop-color="#485CFB"/>
</linearGradient>
</defs>
</svg>
