<svg width="22" height="19" viewBox="0 0 22 19" fill="none" xmlns="http://www.w3.org/2000/svg">
<path fill-rule="evenodd" clip-rule="evenodd" d="M0.393555 9.57915C0.393555 4.56053 4.4619 0.492188 9.48031 0.492188C14.4989 0.492188 18.5673 4.56053 18.5673 9.57915C18.5673 14.5978 14.4989 18.6663 9.48031 18.6663C4.4619 18.6663 0.393555 14.5978 0.393555 9.57915Z" fill="#FFFFFE"/>
<path fill-rule="evenodd" clip-rule="evenodd" d="M14.9764 9.39543C14.9728 7.0684 13.5182 5.08378 11.4686 4.29782V14.4926C13.5182 13.7057 14.9728 11.7229 14.9764 9.39543ZM7.55867 14.4907V4.29889C5.51089 5.0873 4.05857 7.06907 4.05309 9.39549C4.05857 11.7213 5.51089 13.7029 7.55867 14.4907ZM9.51468 0.778429C4.75582 0.780256 0.90032 4.63657 0.899508 9.39543C0.90032 14.1537 4.75582 18.0094 9.51468 18.0102C14.2735 18.0094 18.1299 14.1537 18.1311 9.39543C18.1299 4.63657 14.2735 0.780256 9.51468 0.778429ZM9.49355 18.8234C4.28606 18.8482 0 14.6293 0 9.49375C0 3.88109 4.28606 -0.00101526 9.49355 1.99261e-07H11.9339C17.0799 -0.00101526 21.7764 3.87927 21.7764 9.49375C21.7764 14.6275 17.0799 18.8234 11.9339 18.8234H9.49355Z" fill="#0069AA"/>
</svg>
