<svg width="17" height="17" viewBox="0 0 17 17" fill="none" xmlns="http://www.w3.org/2000/svg">
<path d="M13.3592 12.1807L16.9281 15.7496L15.7496 16.9281L12.1807 13.3592C10.8974 14.3858 9.27 15 7.5 15C3.36 15 0 11.64 0 7.5C0 3.36 3.36 0 7.5 0C11.64 0 15 3.36 15 7.5C15 9.27 14.3858 10.8974 13.3592 12.1807ZM11.6873 11.5623C12.7063 10.5122 13.3333 9.07967 13.3333 7.5C13.3333 4.27708 10.7229 1.66667 7.5 1.66667C4.27708 1.66667 1.66667 4.27708 1.66667 7.5C1.66667 10.7229 4.27708 13.3333 7.5 13.3333C9.07967 13.3333 10.5122 12.7063 11.5623 11.6873L11.6873 11.5623Z" fill="currentColor"/>
</svg>
