<?xml version="1.0" standalone="no"?><!DOCTYPE svg PUBLIC "-//W3C//DTD SVG 1.1//EN" "http://www.w3.org/Graphics/SVG/1.1/DTD/svg11.dtd"><svg t="1761991509483" class="icon" viewBox="0 0 1024 1024" version="1.1" xmlns="http://www.w3.org/2000/svg" p-id="1117" xmlns:xlink="http://www.w3.org/1999/xlink" width="128" height="128" fill="currentColor"><path d="M597.2992 608.1024v89.088A256 256 0 0 0 256 938.7008H170.7008a341.3504 341.3504 0 0 1 426.6496-330.5472zM512 554.6496c-141.4656 0-256-114.5344-256-256 0-141.4144 114.5344-256 256-256 141.4144 0 256 114.5856 256 256 0 141.4656-114.5856 256-256 256z m0-85.2992A170.5984 170.5984 0 1 0 512 128a170.5984 170.5984 0 1 0 0 341.3504z m256 256V576L981.2992 768 768 960v-149.3504h-128v-85.2992H768z" p-id="1118"></path></svg>
