<?xml version="1.0" standalone="no"?><!DOCTYPE svg PUBLIC "-//W3C//DTD SVG 1.1//EN" "http://www.w3.org/Graphics/SVG/1.1/DTD/svg11.dtd"><svg t="1761296201410" class="icon" viewBox="0 0 1024 1024" version="1.1" xmlns="http://www.w3.org/2000/svg" p-id="2203" xmlns:xlink="http://www.w3.org/1999/xlink" width="128" height="128"><path fill="currentColor" d="M883.754667 307.456l-10.496 24.106667a21.589333 21.589333 0 0 1-39.850667 0l-10.496-24.106667a186.154667 186.154667 0 0 0-94.72-96.042667l-32.384-14.421333a22.613333 22.613333 0 0 1 0-41.088l30.592-13.653333a186.282667 186.282667 0 0 0 96.042667-99.242667l10.794666-26.026667a21.589333 21.589333 0 0 1 40.192 0l10.794667 26.026667a186.282667 186.282667 0 0 0 96 99.285333l30.634667 13.610667a22.613333 22.613333 0 0 1 0 41.088l-32.426667 14.421333a186.154667 186.154667 0 0 0-94.677333 96zM384 88.661333a341.418667 341.418667 0 0 1 338.517333 297.173334l96 150.954666c6.314667 9.941333 5.034667 24.789333-9.6 31.061334L725.333333 603.733333v124.970667a85.333333 85.333333 0 0 1-85.333333 85.333333h-85.290667l-0.042666 128H170.666667v-157.610666c0-50.389333-18.602667-98.048-53.077334-141.013334A341.333333 341.333333 0 0 1 384 88.661333z" p-id="2204"></path></svg>