<svg width="18" height="18" viewBox="0 0 18 18" fill="none" xmlns="http://www.w3.org/2000/svg">
<path d="M14.0021 16.5417C14.135 17.0052 13.5995 17.3698 13.217 17.0761L9.20726 13.9979C9.03169 13.8631 8.78839 13.8598 8.60922 13.9898L4.52104 16.9551C4.13097 17.238 3.60578 16.8597 3.75058 16.4001L5.33236 11.379C5.39449 11.1818 5.32881 10.9666 5.16711 10.8378L1.12615 7.6168C0.755303 7.3212 0.965874 6.72362 1.44011 6.72581L6.46971 6.74903C6.68563 6.75002 6.87779 6.61231 6.94623 6.40752L8.59229 1.48237C8.74656 1.02078 9.40238 1.02926 9.54466 1.49468L11.0646 6.46641C11.1276 6.67251 11.3156 6.81504 11.531 6.8201L16.5624 6.9382C17.0363 6.94932 17.2301 7.55209 16.8516 7.83737L12.7299 10.9434C12.5646 11.068 12.4932 11.2816 12.5502 11.4806L14.0021 16.5417Z" fill="currentColor"/>
</svg>
