<svg width="10" height="10" viewBox="0 0 10 10" fill="none" xmlns="http://www.w3.org/2000/svg">
<path d="M4.17382 1.41638C4.5709 0.835385 5.42795 0.835386 5.82503 1.41639L6.76026 2.7848L8.35069 3.25139C9.02596 3.44949 9.29081 4.2646 8.86094 4.82179L7.84851 6.13408L7.89622 7.79088C7.91648 8.49432 7.22311 8.99808 6.56037 8.76144L4.99943 8.20408L3.43847 8.76144C2.77573 8.99808 2.08236 8.49432 2.10262 7.79088L2.15034 6.13408L1.13791 4.82178C0.708047 4.2646 0.972891 3.4495 1.64816 3.25139L3.23859 2.7848L4.17382 1.41638ZM4.99943 1.68504L3.7587 3.50067L1.64817 4.11962L2.99189 5.86067L2.92817 8.05837L4.99943 7.31921L7.07026 8.05837L7.00697 5.86067L8.35026 4.11962L6.24013 3.50067L4.99943 1.68504ZM4.16609 5.00004C4.16609 5.46029 4.53918 5.83337 4.99943 5.83337C5.45968 5.83337 5.83276 5.46029 5.83276 5.00004H6.66609C6.66609 5.9205 5.91988 6.66671 4.99943 6.66671C4.07895 6.66671 3.33276 5.9205 3.33276 5.00004H4.16609Z" fill="url(#paint0_linear_3305_16160)"/>
<defs>
<linearGradient id="paint0_linear_3305_16160" x1="4.99943" y1="0.208374" x2="4.99943" y2="9.25346" gradientUnits="userSpaceOnUse">
<stop stop-color="#1E1E1E"/>
<stop offset="1" stop-color="#6A6E75"/>
</linearGradient>
</defs>
</svg>
