<svg width="15" height="14" viewBox="0 0 15 14" fill="none" xmlns="http://www.w3.org/2000/svg">
<path d="M5.60046 8.66661H1.33366C0.597259 8.66661 0.000325203 8.06966 0.000325203 7.3333V5.93036C0.000325203 5.75623 0.0344591 5.58376 0.100725 5.4227L2.16366 0.412763C2.26653 0.162963 2.50999 -3.71933e-05 2.78013 -3.71933e-05H14.0003C14.3685 -3.71933e-05 14.667 0.298429 14.667 0.66663V7.3333C14.667 7.70147 14.3685 7.99994 14.0003 7.99994H11.6791C11.4625 7.99994 11.2594 8.10519 11.1345 8.28216L7.49886 13.4326C7.40386 13.5672 7.22479 13.6122 7.07746 13.5385L5.86806 12.9338C5.16699 12.5833 4.80492 11.7915 4.99826 11.0319L5.60046 8.66661ZM10.667 6.94163V1.3333H3.22659L1.33366 5.93036V7.3333H5.60046C6.47026 7.3333 7.10713 8.15264 6.89259 8.99556L6.29039 11.3609C6.25173 11.5128 6.32413 11.6711 6.46439 11.7412L6.90513 11.9616L10.0452 7.51324C10.2118 7.27723 10.4247 7.08376 10.667 6.94163ZM12.0003 6.66663H13.3337V1.3333H12.0003V6.66663Z" fill="currentColor"/>
</svg>
