<svg width="17" height="15" viewBox="0 0 17 15" fill="none" xmlns="http://www.w3.org/2000/svg">
<path fill="currentColor" d="M6.52369 1.66667L4.85703 3.33333H1.66667V13.3333H15V3.33333H11.8097L10.143 1.66667H6.52369ZM5.83333 0H10.8333L12.5 1.66667H15.8333C16.2936 1.66667 16.6667 2.03977 16.6667 2.5V14.1667C16.6667 14.6269 16.2936 15 15.8333 15H0.833333C0.3731 15 0 14.6269 0 14.1667V2.5C0 2.03977 0.3731 1.66667 0.833333 1.66667H4.16667L5.83333 0ZM8.33333 12.5C5.80202 12.5 3.75 10.448 3.75 7.91667C3.75 5.38536 5.80202 3.33333 8.33333 3.33333C10.8647 3.33333 12.9167 5.38536 12.9167 7.91667C12.9167 10.448 10.8647 12.5 8.33333 12.5ZM8.33333 10.8333C9.94417 10.8333 11.25 9.5275 11.25 7.91667C11.25 6.30583 9.94417 5 8.33333 5C6.7225 5 5.41667 6.30583 5.41667 7.91667C5.41667 9.5275 6.7225 10.8333 8.33333 10.8333Z"/>
</svg>
