<svg width="15" height="15" viewBox="0 0 15 15" fill="none" xmlns="http://www.w3.org/2000/svg">
<path fill="currentColor" d="M5.30463 6.40175C6.085 7.774 7.226 8.915 8.59825 9.69533L9.33533 8.66342C9.58042 8.32042 10.043 8.21442 10.413 8.4165C11.5853 9.05692 12.8809 9.44608 14.2324 9.55308C14.6658 9.58742 15 9.94908 15 10.3838V14.1028C15 14.5301 14.6768 14.8881 14.2518 14.9318C13.8102 14.9772 13.3647 15 12.9167 15C5.78299 15 0 9.217 0 2.08333C0 1.63522 0.0228501 1.18976 0.0682418 0.748133C0.111917 0.323125 0.46995 0 0.897208 0H4.61618C5.05092 0 5.41261 0.3342 5.44692 0.767575C5.55389 2.11907 5.94308 3.4147 6.5835 4.58703C6.78558 4.957 6.67958 5.41962 6.33658 5.66464L5.30463 6.40175ZM3.20354 5.85433L4.78683 4.72341C4.33789 3.75428 4.03023 2.72652 3.87273 1.66667H1.67422C1.66919 1.80527 1.66667 1.94417 1.66667 2.08333C1.66667 8.2965 6.7035 13.3333 12.9167 13.3333C13.0558 13.3333 13.1947 13.3308 13.3333 13.3257V11.1272C12.2735 10.9697 11.2457 10.6621 10.2766 10.2132L9.14567 11.7965C8.68817 11.6187 8.24633 11.4096 7.82283 11.1717L7.77442 11.1442C6.14142 10.2156 4.78445 8.85858 3.85583 7.22558L3.82828 7.17717C3.59041 6.75367 3.38128 6.31183 3.20354 5.85433Z"/>
</svg>
