<svg width="16" height="16" viewBox="0 0 16 16" fill="none" xmlns="http://www.w3.org/2000/svg">
<g clip-path="url(#clip0_4645_15733)">
<path d="M1 8C1 11.866 4.134 15 8 15C11.866 15 15 11.866 15 8C15 4.134 11.866 1 8 1C4.134 1 1 4.134 1 8Z" fill="url(#paint0_linear_4645_15733)"/>
<path d="M9 6C9 5.65482 9.22385 5.5 9.5 5.5C9.77615 5.5 10 5.65482 10 6V10C10 10.3452 9.77615 10.5 9.5 10.5C9.22385 10.5 9 10.3452 9 10V6ZM6 6C6 5.65482 6.22386 5.5 6.5 5.5C6.77614 5.5 7 5.65482 7 6V10C7 10.3452 6.77614 10.5 6.5 10.5C6.22386 10.5 6 10.3452 6 10V6Z" fill="black"/>
</g>
<defs>
<linearGradient id="paint0_linear_4645_15733" x1="0.934925" y1="1.56171" x2="16.3499" y2="3.34755" gradientUnits="userSpaceOnUse">
<stop stop-color="#DD429D"/>
<stop offset="0.5" stop-color="#B14BF4"/>
<stop offset="1" stop-color="#485CFB"/>
</linearGradient>
<clipPath id="clip0_4645_15733">
<rect width="16" height="16" fill="white"/>
</clipPath>
</defs>
</svg>
