<svg width="16" height="16" viewBox="0 0 16 16" fill="none" xmlns="http://www.w3.org/2000/svg">
<g clip-path="url(#clip0_4642_1981)">
<path d="M7.99998 14.6668C4.31808 14.6668 1.33331 11.682 1.33331 8.00016C1.33331 4.31826 4.31808 1.3335 7.99998 1.3335C11.6818 1.3335 14.6666 4.31826 14.6666 8.00016C14.6666 11.682 11.6818 14.6668 7.99998 14.6668ZM7.08125 5.60989C7.03745 5.58068 6.98598 5.5651 6.93331 5.5651C6.78605 5.5651 6.66665 5.68449 6.66665 5.83177V10.1686C6.66665 10.2212 6.68225 10.2727 6.71145 10.3165C6.79311 10.439 6.95871 10.4722 7.08125 10.3904L10.3338 8.22203C10.3631 8.2025 10.3882 8.17736 10.4078 8.1481C10.4895 8.02556 10.4564 7.85996 10.3338 7.7783L7.08125 5.60989Z" fill="url(#paint0_linear_4642_1981)"/>
</g>
<defs>
<linearGradient id="paint0_linear_4642_1981" x1="1.27134" y1="1.86846" x2="15.9523" y2="3.56926" gradientUnits="userSpaceOnUse">
<stop stop-color="#DD429D"/>
<stop offset="0.5" stop-color="#B14BF4"/>
<stop offset="1" stop-color="#485CFB"/>
</linearGradient>
<clipPath id="clip0_4642_1981">
<rect width="16" height="16" fill="white"/>
</clipPath>
</defs>
</svg>
