<?xml version="1.0" standalone="no"?><!DOCTYPE svg PUBLIC "-//W3C//DTD SVG 1.1//EN" "http://www.w3.org/Graphics/SVG/1.1/DTD/svg11.dtd"><svg t="1762609729485" class="icon" viewBox="0 0 1024 1024" version="1.1" xmlns="http://www.w3.org/2000/svg" p-id="1085" xmlns:xlink="http://www.w3.org/1999/xlink" width="128" height="128" fill="currentColor"><path d="M512.36 62C757.025 62 962 264.32 962 506.78 962 756.71 758.51 962 512.36 962 265.49 962 62 756.71 62 506.78 62 264.32 266.975 62 512.36 62z m-1.89 299.07C457.1 233.09 214.64 254.825 214.64 453.905c0 100.35 75.915 234 297.72 370.125 221.85-136.125 297.765-269.73 297.765-370.125 0-197.595-241.335-221.49-295.605-93.51 9.9 93.285 56.97 140.58 159.615 140.58-161.595 0-141.57 160.47-161.64 250.065-20.07-89.595 0-250.065-161.55-250.065 102.555 0 149.625-45.72 159.525-139.95z" p-id="1086"></path></svg>
