<svg width="26" height="17" viewBox="0 0 26 17" fill="none" xmlns="http://www.w3.org/2000/svg">
<path fill-rule="evenodd" clip-rule="evenodd" d="M24.3093 0.00480978L18.0122 0.00317383C18.0114 0.00317383 18.0106 0.00317383 18.0106 0.00317383C18.0057 0.00317383 18.0009 0.00404707 17.9962 0.00404707C17.1311 0.0307629 16.0537 0.730186 15.8574 1.59263L12.8795 14.8755C12.6832 15.746 13.2171 16.4544 14.0759 16.4674H20.6913C21.537 16.4252 22.3588 15.7338 22.5517 14.8812L25.5297 1.59819C25.7291 0.718845 25.1824 0.00480978 24.3093 0.00480978Z" fill="#01798A"/>
<path fill-rule="evenodd" clip-rule="evenodd" d="M12.8803 14.8755L15.8583 1.59256C16.0545 0.730113 17.132 0.0306898 17.997 0.00397404L15.4933 0.00233809L10.9824 0.00146484C10.1149 0.0193486 9.02344 0.72368 8.82728 1.59256L5.84844 14.8755C5.65149 15.746 6.18611 16.4543 7.04438 16.4673H14.0768C13.218 16.4543 12.6841 15.746 12.8803 14.8755Z" fill="#024381"/>
<path fill-rule="evenodd" clip-rule="evenodd" d="M5.84799 14.8755L8.82683 1.59262C9.02298 0.72374 10.1145 0.0194106 10.9819 0.00152682L5.20316 0C4.33083 0 3.21239 0.7124 3.01303 1.59262L0.0341851 14.8755C0.0160573 14.9566 0.00600028 15.036 0 15.1138V15.3602C0.0583133 15.9947 0.539061 16.4568 1.23011 16.4674H7.04392C6.18566 16.4544 5.65103 15.746 5.84799 14.8755Z" fill="#DD0228"/>
<path fill-rule="evenodd" clip-rule="evenodd" d="M11.1039 9.68038H11.2132C11.3137 9.68038 11.3813 9.64639 11.413 9.57909L11.6972 9.15036H12.4582L12.2995 9.43234H13.212L13.0962 9.8644H12.0105C11.8854 10.054 11.7315 10.1432 11.5464 10.1326H10.9809L11.1039 9.68038ZM10.9789 10.2996H12.978L12.8506 10.7689H12.0466L11.9239 11.2219H12.7062L12.5788 11.6912H11.7965L11.6148 12.3606C11.5698 12.4725 11.6289 12.5228 11.7913 12.5114H12.4289L12.3108 12.9475H11.0866C10.8546 12.9475 10.775 12.8137 10.8478 12.5455L11.0802 11.6912H10.5801L10.7071 11.2219H11.2073L11.3298 10.7689H10.8518L10.9789 10.2996ZM14.1696 9.14713L14.1382 9.42187C14.1382 9.42187 14.5153 9.13647 14.8577 9.13647H16.1233L15.6393 10.9025C15.5992 11.1044 15.4271 11.2048 15.1231 11.2048H13.6887L13.3527 12.4449C13.3333 12.5114 13.3607 12.5455 13.4331 12.5455H13.7153L13.6116 12.9304H12.894C12.6186 12.9304 12.5041 12.8469 12.5495 12.6792L13.499 9.14713H14.1696ZM15.2413 9.64635H14.1118L13.9767 10.1229C13.9767 10.1229 14.1648 9.98598 14.4791 9.98108C14.7926 9.97613 15.1505 9.98108 15.1505 9.98108L15.2413 9.64635ZM14.8321 10.7518C14.9156 10.7633 14.9623 10.73 14.968 10.6513L15.0371 10.4001H13.9058L13.8109 10.7518H14.8321ZM14.0691 11.3224H14.7211L14.709 11.6068H14.8826C14.9704 11.6068 15.0139 11.5785 15.0139 11.5226L15.0652 11.3386H15.6072L15.5348 11.6068C15.4736 11.8306 15.3113 11.9473 15.0476 11.9587H14.7003L14.6986 12.4449C14.6923 12.5228 14.7621 12.5625 14.906 12.5625H15.2325L15.1271 12.9475H14.344C14.1245 12.958 14.0169 12.8526 14.0192 12.6289L14.0691 11.3224Z" fill="white"/>
<path fill-rule="evenodd" clip-rule="evenodd" d="M6.16717 6.79421C6.07873 7.23107 5.87371 7.5666 5.55568 7.80488C5.24054 8.03912 4.83407 8.1566 4.33643 8.1566C3.86811 8.1566 3.52477 8.03665 3.30567 7.79594C3.15372 7.62491 3.07812 7.40771 3.07812 7.14511C3.07812 7.03653 3.09102 6.91982 3.11675 6.79421L3.64698 4.21692H4.44778L3.92477 6.76503C3.90868 6.83556 3.90225 6.9012 3.90309 6.96037C3.90225 7.09089 3.9344 7.19784 3.99952 7.28128C4.09439 7.40532 4.24837 7.46688 4.46264 7.46688C4.70904 7.46688 4.91208 7.40614 5.06966 7.28372C5.22727 7.16215 5.33017 6.98955 5.37639 6.76503L5.90104 4.21692H6.69779L6.16717 6.79421Z" fill="white"/>
<path fill-rule="evenodd" clip-rule="evenodd" d="M9.53007 5.78028H10.1572L9.66598 8.08044H9.04004L9.53007 5.78028ZM9.7275 4.94226H10.3603L10.2421 5.50058H9.60935L9.7275 4.94226Z" fill="white"/>
<path fill-rule="evenodd" clip-rule="evenodd" d="M10.7125 7.90527C10.5485 7.74724 10.4656 7.53409 10.4648 7.2634C10.4648 7.21717 10.4676 7.16452 10.4737 7.10694C10.4798 7.04857 10.4874 6.99184 10.4982 6.93919C10.5726 6.56557 10.731 6.26894 10.975 6.05008C11.2186 5.83045 11.5125 5.72021 11.8566 5.72021C12.1384 5.72021 12.3619 5.79966 12.5256 5.9585C12.6891 6.11819 12.7711 6.33373 12.7711 6.60775C12.7711 6.65469 12.7676 6.709 12.7615 6.76735C12.7543 6.82652 12.7455 6.88326 12.7353 6.93919C12.6626 7.30713 12.5047 7.60054 12.2607 7.81536C12.0166 8.03175 11.7236 8.13946 11.3818 8.13946C11.0989 8.13946 10.8761 8.06169 10.7125 7.90527ZM11.9077 7.4498C12.0182 7.32904 12.0974 7.14583 12.1457 6.90193C12.1529 6.86385 12.1593 6.82411 12.1633 6.78441C12.1673 6.74548 12.1689 6.70901 12.1689 6.67579C12.1689 6.53394 12.1331 6.42375 12.0612 6.34592C11.9897 6.26729 11.888 6.22843 11.7566 6.22843C11.5828 6.22843 11.4413 6.28995 11.3305 6.41318C11.2186 6.53641 11.1394 6.72281 11.0895 6.97081C11.0827 7.00889 11.0771 7.04701 11.0719 7.08428C11.0679 7.12236 11.0667 7.15802 11.0675 7.19043C11.0675 7.33147 11.1033 7.44009 11.1752 7.51706C11.2467 7.59408 11.348 7.63215 11.4811 7.63215C11.6556 7.63215 11.7971 7.57137 11.9077 7.4498Z" fill="white"/>
<path fill-rule="evenodd" clip-rule="evenodd" d="M16.84 9.69971L16.9913 9.16321H17.7559L17.7229 9.36009C17.7229 9.36009 18.1136 9.16321 18.395 9.16321C18.6764 9.16321 19.3404 9.16321 19.3404 9.16321L19.1902 9.69971H19.0414L18.3282 12.2301H18.477L18.3355 12.7326H18.1867L18.1248 12.9506H17.3844L17.4462 12.7326H15.9854L16.1277 12.2301H16.2741L16.9879 9.69971H16.84ZM17.665 9.69975L17.4704 10.3846C17.4704 10.3846 17.8033 10.2558 18.0903 10.2193C18.1537 9.98016 18.2366 9.69975 18.2366 9.69975L17.665 9.69975ZM17.3803 10.7055L17.185 11.4228C17.185 11.4228 17.554 11.2396 17.8072 11.2242C17.8804 10.947 17.9536 10.7055 17.9536 10.7055L17.3803 10.7055ZM17.5234 12.2301L17.6698 11.7097H17.099L16.9519 12.2301H17.5234ZM19.3726 9.13H20.0915L20.122 9.39738C20.1172 9.46544 20.1573 9.49795 20.2426 9.49795H20.3696L20.2411 9.95096H19.7127C19.511 9.96148 19.4073 9.88374 19.3976 9.71591L19.3726 9.13ZM19.162 10.1018H21.4904L21.3538 10.5881H20.6124L20.4853 11.0402H21.2259L21.0884 11.5257H20.2636L20.077 11.8103H20.4807L20.5739 12.38C20.5851 12.4367 20.6349 12.4643 20.7202 12.4643H20.8456L20.7138 12.9335H20.27C20.04 12.9449 19.9211 12.8671 19.9114 12.6994L19.8044 12.179L19.437 12.7326C19.3501 12.889 19.2167 12.962 19.0366 12.9506H18.3588L18.4907 12.4813H18.7022C18.789 12.4813 18.8613 12.4424 18.9264 12.3638L19.5014 11.5257H18.76L18.8974 11.0402H19.7015L19.8294 10.5881H19.0245L19.162 10.1018Z" fill="white"/>
<path fill-rule="evenodd" clip-rule="evenodd" d="M6.90452 5.77943H7.47011L7.40542 6.11172L7.4866 6.0169C7.66994 5.81917 7.89263 5.72107 8.15556 5.72107C8.39354 5.72107 8.56518 5.7908 8.67294 5.93098C8.77904 6.07122 8.80798 6.26494 8.75779 6.51375L8.44619 8.0812H7.86491L8.1463 6.66045C8.17529 6.51375 8.16726 6.40432 8.12255 6.33378C8.07839 6.26328 7.99392 6.22847 7.87214 6.22847C7.72259 6.22847 7.59675 6.27542 7.49425 6.36866C7.39131 6.46267 7.3234 6.59319 7.29002 6.75931L7.03073 8.0812H6.44824L6.90452 5.77943Z" fill="white"/>
<path fill-rule="evenodd" clip-rule="evenodd" d="M13.3907 5.77943H13.9568L13.8926 6.11172L13.9728 6.0169C14.1563 5.81917 14.3798 5.72107 14.6419 5.72107C14.8799 5.72107 15.0519 5.7908 15.1588 5.93098C15.2642 6.07122 15.2947 6.26494 15.2433 6.51375L14.9329 8.0812H14.3508L14.6323 6.66045C14.6612 6.51375 14.6532 6.40432 14.6089 6.33378C14.563 6.26328 14.4802 6.22847 14.3589 6.22847C14.2093 6.22847 14.0839 6.27542 13.9802 6.36866C13.8772 6.46267 13.809 6.59319 13.7768 6.75931L13.5163 8.0812H12.9346L13.3907 5.77943" fill="white"/>
<path fill-rule="evenodd" clip-rule="evenodd" d="M16.1888 4.35303H17.8322C18.1481 4.35303 18.3925 4.42522 18.5605 4.56698C18.7277 4.71048 18.8115 4.91636 18.8115 5.18461V5.19268C18.8115 5.24372 18.8081 5.30129 18.8034 5.36367C18.7952 5.42528 18.7848 5.48765 18.7712 5.55254C18.6989 5.90754 18.5308 6.19285 18.2711 6.40924C18.0105 6.62481 17.7019 6.73343 17.3466 6.73343H16.4653L16.1928 8.08127H15.4297L16.1888 4.35303ZM16.5995 6.08507H17.3304C17.5209 6.08507 17.672 6.04042 17.7823 5.95213C17.8916 5.86297 17.964 5.72684 18.0041 5.54206C18.0105 5.50793 18.0145 5.47718 18.0194 5.44883C18.0219 5.42211 18.025 5.39528 18.025 5.36944C18.025 5.23728 17.9785 5.14164 17.8852 5.08167C17.7919 5.02082 17.6457 4.9917 17.4429 4.9917H16.8222L16.5995 6.08507Z" fill="white"/>
<path fill-rule="evenodd" clip-rule="evenodd" d="M22.227 8.52623C21.9858 9.04328 21.7559 9.34473 21.6209 9.48495C21.4857 9.6236 21.2181 9.94618 20.5732 9.92182L20.6287 9.52716C21.1713 9.35857 21.4648 8.59908 21.6321 8.26278L21.4327 5.78594L21.8524 5.78027H22.2045L22.2424 7.33398L22.9024 5.78027H23.5706L22.227 8.52623Z" fill="white"/>
<path fill-rule="evenodd" clip-rule="evenodd" d="M20.3589 5.96742L20.0935 6.15144C19.8161 5.93263 19.5629 5.79726 19.0741 6.02578C18.4083 6.33699 17.852 8.72391 19.6851 7.93772L19.7896 8.06252L20.5108 8.08118L20.9844 5.9123L20.3589 5.96742ZM19.9488 7.15316C19.833 7.49763 19.5742 7.72536 19.3716 7.66053C19.169 7.59731 19.0966 7.26497 19.214 6.91973C19.3297 6.57445 19.5902 6.34753 19.7912 6.41237C19.9938 6.47559 20.0669 6.80787 19.9488 7.15316Z" fill="white"/>
</svg>
