<svg width="20" height="19" viewBox="0 0 20 19" fill="none" xmlns="http://www.w3.org/2000/svg">
<path d="M10.0012 1.52832C12.3501 -0.579982 15.9798 -0.510224 18.2424 1.75684C20.5051 4.0242 20.5831 7.63716 18.4787 9.99316L10.0002 18.4844L1.52167 9.99316C-0.582663 7.63716 -0.504631 4.01849 1.75702 1.75684C4.02123 -0.507318 7.64537 -0.583322 10.0012 1.52832ZM16.8273 3.16992C15.3283 1.66781 12.9077 1.60689 11.3371 3.0166L10.2512 3.99023L10.2502 4L12.0002 6.5L9.50018 9.5L11.5002 12.5L9.60468 15.2588L10.0002 15.6543L17.0197 8.62305C18.3931 7.04662 18.3191 4.66508 16.8273 3.16992ZM7.56073 2.31543C6.10207 1.69798 4.354 1.98896 3.17108 3.17188C1.68178 4.66162 1.60699 7.0473 2.97968 8.62305L9.41229 15.0654L10.0002 12.5L7.00018 9.5L9.00018 6.5L7.00018 4L7.56073 2.31543Z" fill="currentColor"/>
</svg>
