<svg width="26" height="9" viewBox="0 0 26 9" fill="none" xmlns="http://www.w3.org/2000/svg">
<path d="M12.6612 0.145867L10.9528 8.13283H8.88642L10.595 0.145867H12.6612ZM21.3543 5.30314L22.4418 2.30388L23.0677 5.30314H21.3543ZM23.6605 8.13283H25.5712L23.902 0.145867H22.1395C21.7423 0.145867 21.4075 0.376165 21.2593 0.731313L18.1589 8.13283H20.3289L20.7597 6.94002H23.4103L23.6605 8.13283ZM18.2665 5.52536C18.2755 3.41747 15.3525 3.3007 15.3721 2.35885C15.3784 2.07268 15.6515 1.76783 16.2482 1.68987C16.5441 1.65179 17.3606 1.62089 18.2861 2.04735L18.648 0.352992C18.151 0.173173 17.5113 0 16.7153 0C14.6726 0 13.2357 1.08502 13.2242 2.63999C13.2111 3.78986 14.2506 4.43099 15.0322 4.81398C15.8381 5.20542 16.1081 5.45638 16.1042 5.80613C16.0986 6.342 15.4616 6.5793 14.8684 6.58829C13.829 6.60445 13.2265 6.30733 12.7463 6.0835L12.3712 7.83445C12.8548 8.05576 13.7458 8.24834 14.6685 8.25822C16.8401 8.25822 18.26 7.18595 18.2665 5.52536ZM9.70863 0.145867L6.36068 8.13283H4.1768L2.52915 1.75867C2.42927 1.3667 2.34214 1.22263 2.03837 1.057C1.54149 0.787181 0.721253 0.534787 0 0.377782L0.0488626 0.145867H3.56477C4.01261 0.145867 4.41554 0.443889 4.51812 0.959815L5.38847 5.58194L7.53786 0.145867H9.70863Z" fill="#1434CB"/>
</svg>
