<svg width="22" height="22" viewBox="0 0 22 22" fill="none" xmlns="http://www.w3.org/2000/svg">
<path d="M15.0314 16.839C13.9994 17.4228 12.8406 17.8087 11.6067 17.9451V22H9.60665V17.9451C5.43499 17.4839 2.12268 14.1716 1.66154 10H3.6775C4.16272 13.3923 7.08013 16 10.6067 16C11.6568 16 12.6529 15.7688 13.5469 15.3544L11.9966 13.8042C11.5553 13.9317 11.089 14 10.6067 14C7.84518 14 5.60661 11.7614 5.60661 9V7.41421L0 1.80761L1.41422 0.3934L21.2132 20.1924L19.7989 21.6066L15.0314 16.839ZM17.9811 14.1604L16.5387 12.7179C17.0471 11.9084 17.3944 10.9874 17.5357 10H19.5516C19.3818 11.5366 18.8251 12.9565 17.9811 14.1604ZM15.0722 11.2514L6.2922 2.47139C7.16072 0.99268 8.76775 0 10.6067 0C13.3681 0 15.6067 2.23858 15.6067 5V9C15.6067 9.8099 15.414 10.5748 15.0722 11.2514Z" fill="currentColor"/>
</svg>
