<svg width="18" height="20" viewBox="0 0 18 20" fill="none" xmlns="http://www.w3.org/2000/svg">
<path fill="currentColor" d="M14.5101 6.41149L14.7156 5.94009C15.0818 5.09956 15.7415 4.43034 16.5647 4.06423L17.1977 3.78268C17.54 3.63044 17.54 3.13234 17.1977 2.9801L16.6001 2.71428C15.7558 2.33876 15.0843 1.64477 14.7243 0.77569L14.5133 0.266278C14.3663 -0.0887594 13.8759 -0.0887594 13.7288 0.266278L13.5178 0.77569C13.1579 1.64477 12.4864 2.33876 11.6421 2.71428L11.0444 2.9801C10.7022 3.13234 10.7022 3.63044 11.0444 3.78268L11.6775 4.06423C12.5007 4.43034 13.1603 5.09956 13.5266 5.94009L13.732 6.41149C13.8824 6.7566 14.3598 6.7566 14.5101 6.41149ZM0 9.16667H1.67997C2.08433 11.9936 4.5155 14.1667 7.45426 14.1667C10.3929 14.1667 12.8241 11.9936 13.2285 9.16667H14.9084C14.5242 12.643 11.7639 15.4033 8.28759 15.7876V19.1667H6.62092V15.7876C3.14454 15.4033 0.384292 12.643 0 9.16667ZM7.45443 0.833333C5.15324 0.833333 3.28776 2.69882 3.28776 5V8.33333C3.28776 10.6345 5.15324 12.5 7.45443 12.5C9.75559 12.5 11.6211 10.6345 11.6211 8.33333V5.83333H9.95443V8.33333C9.95443 9.71408 8.83518 10.8333 7.45443 10.8333C6.07368 10.8333 4.95443 9.71408 4.95443 8.33333V5C4.95443 3.61929 6.07368 2.5 7.45443 2.5C7.95209 2.5 8.41351 2.64457 8.80192 2.89373L9.70184 1.49092C9.05293 1.07464 8.28059 0.833333 7.45443 0.833333Z"/>
</svg>
