<?xml version="1.0" standalone="no"?><!DOCTYPE svg PUBLIC "-//W3C//DTD SVG 1.1//EN" "http://www.w3.org/Graphics/SVG/1.1/DTD/svg11.dtd"><svg t="1761240527215" class="icon" viewBox="0 0 1024 1024" version="1.1" xmlns="http://www.w3.org/2000/svg" p-id="2065" xmlns:xlink="http://www.w3.org/1999/xlink" width="128" height="128"><path fill="currentColor" d="M914.4547552 791.66577777a544.1763552 544.1763552 0 0 1-53.83964373 96.80213333c-28.30791147 40.3228448-51.47306667 68.26666667-69.35893334 83.7859552-27.6707552 25.48622187-57.344 38.5024-89.11075626 39.23057814-22.7555552 0-50.28977813-6.46257813-82.3296-19.6608-32.08533333-13.06168853-61.6220448-19.56977813-88.61013334-19.56977814-28.30791147 0-58.66382187 6.50808853-91.1587552 19.56977814-32.49493333 13.19822187-58.70933333 20.02488853-78.73422186 20.7075552-30.4924448 1.31982187-60.8028448-12.1059552-91.1132448-40.27733334-19.34222187-16.83911147-43.55413333-45.78417813-72.54471147-86.78968853-31.08408853-43.73617813-56.66133333-94.48106667-76.68622187-152.32568853-21.4812448-62.4867552-32.22186667-123.01653333-32.22186666-181.58933334 0-67.08337813 14.5180448-124.97351147 43.55413333-173.4428448A255.4083552 255.4083552 0 0 1 223.4595552 285.80977777a245.30488853 245.30488853 0 0 1 123.2440896-34.77048853c24.21191147 0 55.97866667 7.46382187 95.39128853 22.1639104 39.3216 14.79111147 64.5347552 22.25493333 75.63946667 22.25493333 8.23751147 0 36.31786667-8.73813333 83.83146667-26.2144 44.96497813-16.1564448 82.9212448-22.84657813 114.00533333-20.20693333 84.24106667 6.7811552 147.54702187 40.00426667 189.59928853 99.80586666-75.32088853 45.6476448-112.59448853 109.5907552-111.8208 191.60177814 0.68266667 63.8976 23.84782187 117.05457813 69.4044448 159.28888853 20.61653333 19.56977813 43.69066667 34.72497813 69.31342187 45.51111147a747.7475552 747.7475552 0 0 1-17.6583104 46.37582186zM721.26008853 31.4026663c0 50.06222187-18.29546667 96.8476448-54.74986666 140.12871147-44.0092448 51.4275552-97.2572448 81.14631147-154.96533334 76.45866667a155.51146667 155.51146667 0 0 1-1.18328853-18.97813334c0-48.05973333 20.93511147-99.48728853 58.11768853-141.5395552 18.56853333-21.2992 42.14328853-39.04853333 70.76977814-53.15697813 28.53546667-13.9264 55.5235552-21.61777813 80.96426666-22.9376 0.72817813 6.69013333 1.0467552 13.38026667 1.0467552 20.02488853z" p-id="2066"></path></svg>
