<?xml version="1.0" standalone="no"?><!DOCTYPE svg PUBLIC "-//W3C//DTD SVG 1.1//EN" "http://www.w3.org/Graphics/SVG/1.1/DTD/svg11.dtd"><svg t="1761238073516" class="icon" viewBox="0 0 1024 1024" version="1.1" xmlns="http://www.w3.org/2000/svg" p-id="2551" xmlns:xlink="http://www.w3.org/1999/xlink" width="128" height="128"><path fill="currentColor" d="M421.888 429.568c-29.184 0-52.224 25.6-52.224 56.832s23.552 56.832 52.224 56.832c29.184 0 52.224-25.6 52.224-56.832 0.512-31.232-23.04-56.832-52.224-56.832z m186.88 0c-29.184 0-52.224 25.6-52.224 56.832s23.552 56.832 52.224 56.832c29.184 0 52.224-25.6 52.224-56.832s-23.04-56.832-52.224-56.832z" p-id="2552"></path><path fill="currentColor" d="M857.6 0H171.52A105.216 105.216 0 0 0 66.56 105.472v692.224a105.216 105.216 0 0 0 104.96 105.472h580.608l-27.136-94.72 65.579 60.928 61.909 57.344L962.56 1024V105.472A105.216 105.216 0 0 0 857.6 0zM659.968 668.672s-18.39-22.016-33.75-41.472c67.073-18.944 92.673-60.928 92.673-60.928-20.992 13.824-40.96 23.552-58.88 30.208-25.6 10.752-50.176 17.92-74.24 22.016a358.656 358.656 0 0 1-132.608-0.512 429.824 429.824 0 0 1-75.264-22.016 300.032 300.032 0 0 1-37.376-17.408c-1.536-1.024-3.072-1.536-4.608-2.56a7.083 7.083 0 0 1-2.048-1.536 179.627 179.627 0 0 1-14.336-8.704s24.576 40.96 89.6 60.416c-15.36 19.456-34.304 42.496-34.304 42.496-113.152-3.584-156.16-77.824-156.16-77.824 0-164.864 73.728-298.496 73.728-298.496 73.728-55.296 143.872-53.76 143.872-53.76l5.12 6.144c-92.16 26.624-134.656 67.072-134.656 67.072s11.264-6.144 30.208-14.848c54.784-24.064 98.261-30.72 116.181-32.256 3.115-0.512 5.675-1.024 8.747-1.024a417.365 417.365 0 0 1 257.536 48.128s-40.491-38.4-127.531-65.024l7.168-8.192s70.187-1.536 143.915 53.76c0 0 73.685 133.632 73.685 298.496 0 0-43.52 74.24-156.63 77.824z" p-id="2553"></path></svg>
