<?xml version="1.0" standalone="no"?><!DOCTYPE svg PUBLIC "-//W3C//DTD SVG 1.1//EN" "http://www.w3.org/Graphics/SVG/1.1/DTD/svg11.dtd"><svg t="1761238021453" class="icon" viewBox="0 0 1024 1024" version="1.1" xmlns="http://www.w3.org/2000/svg" p-id="2072" xmlns:xlink="http://www.w3.org/1999/xlink" width="128" height="128"><path d="M1013.981356 523.835756c0-34.81481-2.815904-69.800282-8.831699-104.060445H522.222157v197.155931h276.555885a236.96257 236.96257 0 0 1-102.353836 155.600017v127.910296h164.986362c96.892689-89.170287 152.570787-220.877787 152.570788-376.605799z" fill="#4285F4" p-id="2073"></path><path d="M522.222157 1024c138.107281 0 254.540637-45.310452 339.401738-123.558445l-164.986363-127.910296c-45.907765 31.188268-105.16974 48.894329-174.202049 48.894329-133.584769 0-246.860899-90.108921-287.478177-211.278115h-170.234184v131.878161a512.067838 512.067838 0 0 0 457.499035 282.017031z" fill="#34A853" p-id="2074"></path><path d="M234.786645 610.147473a306.677522 306.677522 0 0 1 0-196.00397V282.265343H64.723122a512.409159 512.409159 0 0 0 0 459.760291l170.063523-131.835495z" fill="#FBBC04" p-id="2075"></path><path d="M522.222157 202.694728a278.177162 278.177162 0 0 1 196.387957 76.754711l146.213671-146.171006A492.057855 492.057855 0 0 0 522.222157 0.034985 511.897177 511.897177 0 0 0 64.723122 282.265343l170.063523 131.835495C275.190598 292.846314 388.637388 202.694728 522.222157 202.694728z" fill="#EA4335" p-id="2076"></path></svg>